<svg xmlns="http://www.w3.org/2000/svg" xmlns:xlink="http://www.w3.org/1999/xlink" width="325.932" height="37.688" viewBox="0 0 325.932 37.688">
  <defs>
    <clipPath id="clip-path">
      <rect id="사각형_34" data-name="사각형 34" width="30" height="37.688" fill="#adb4b7"/>
    </clipPath>
  </defs>
  <g id="그룹_163" data-name="그룹 163" transform="translate(-24.264 -7511)">
    <g id="그룹_78" data-name="그룹 78" transform="translate(172.5 7511)">
      <g id="그룹_77" data-name="그룹 77" clip-path="url(#clip-path)">
        <path id="패스_91" data-name="패스 91" d="M27.812,36.847H30.1L16.541.125H13.687L.18,36.847H2.159L7.345,22.166h.6a7.408,7.408,0,0,0-.38,2.177V26.51H8.93V24.375a5.853,5.853,0,0,1,.39-2.209H20.509A4.533,4.533,0,0,1,20.7,23.5c0,2.06-3.113,2.562-5.817,2.815-4.959.463-8.287,1.761-8.284,6.05,0,3.3,2.84,5.3,6.445,5.3a8.923,8.923,0,0,0,7.247-3.794h.594c0,1.076.59,3.784,2.592,3.878.772.036,1.584,0,1.584,0V36.375h-.873c-1.655.368-2.023-1.844-2.023-3.389V23.938a8.147,8.147,0,0,0-.182-1.772h.71ZM20.8,30.264c0,3.049-3.99,6.128-7.381,6.119-3.432-.01-5.38-1.332-5.36-4.1.026-3.583,2.475-4.216,7.079-4.767,1.633-.2,4.258-.5,5.75-1.766Zm-10.462-9.59a6.885,6.885,0,0,1,4.841-1.5,5.959,5.959,0,0,1,4.461,1.5Zm11.094,0c-1.124-2.02-3.442-2.769-6.289-2.769-3.14,0-5.266,1.071-6.449,2.769H7.884l3.931-11.1c.719-2.106,2.928-8.227,2.928-8.227h.792l2.879,8.227,3.793,11.1Z" transform="translate(-0.14 -0.097)" fill="#adb4b7"/>
      </g>
    </g>
    <path id="패스_1010" data-name="패스 1010" d="M-73.032,0h1.1L-71-2.616h3.42L-66.672,0H-65.5l-3.168-8.58h-1.212Zm3.36-6.372c.168-.492.4-1.212.4-1.212h.024s.216.732.384,1.212l.984,2.88h-2.808ZM-65.616,0h1.1l.924-2.616h3.42L-59.256,0h1.176l-3.168-8.58H-62.46Zm3.36-6.372c.168-.492.4-1.212.4-1.212h.024s.216.732.384,1.212l.984,2.88h-2.808ZM-55.968,0h1.08V-3.6h2.34c1.872,0,2.772-.948,2.772-2.52a2.478,2.478,0,0,0-.576-1.632,2.556,2.556,0,0,0-2.04-.828h-3.576Zm1.08-7.644h2.316c1.092,0,1.728.54,1.728,1.572,0,.984-.576,1.6-1.788,1.6h-2.256ZM-49.092,0h1.08V-3.624h2.388c1.152,0,1.656.444,1.74,1.7.1,1.44.132,1.764.312,1.92h1.164V-.048c-.156-.108-.3-.456-.4-1.836-.084-1.272-.36-1.872-1.236-2.184V-4.1a2.026,2.026,0,0,0,1.488-2.124A2.319,2.319,0,0,0-45.084-8.58h-4.008Zm1.08-7.644h2.6c1.26,0,1.74.528,1.74,1.572,0,.972-.6,1.572-1.8,1.572h-2.544ZM-37.728.18c2.592,0,4.2-1.908,4.2-4.476s-1.608-4.476-4.2-4.476-4.2,1.908-4.2,4.476S-40.32.18-37.728.18Zm0-.948c-2.016,0-3.1-1.512-3.1-3.528s1.08-3.54,3.1-3.54,3.1,1.524,3.1,3.54S-35.712-.768-37.728-.768ZM-25.884,0h.7V-4.536h-3.66V-3.6h2.58v.2A2.435,2.435,0,0,1-28.86-.756c-1.74,0-2.964-1.4-2.964-3.5,0-2.016.936-3.564,3-3.564A2.207,2.207,0,0,1-26.424-6h1.116A3.214,3.214,0,0,0-28.8-8.76c-2.7,0-4.128,1.98-4.128,4.5,0,2.6,1.62,4.44,4.032,4.44A3.121,3.121,0,0,0-26.22-1.128h.024Zm1.824,0h1.08V-3.624h2.388c1.152,0,1.656.444,1.74,1.7.1,1.44.132,1.764.312,1.92h1.164V-.048c-.156-.108-.3-.456-.4-1.836-.084-1.272-.36-1.872-1.236-2.184V-4.1A2.026,2.026,0,0,0-17.52-6.228,2.319,2.319,0,0,0-20.052-8.58H-24.06Zm1.08-7.644h2.6c1.26,0,1.74.528,1.74,1.572,0,.972-.6,1.572-1.8,1.572H-22.98ZM-17.256,0h1.1l.924-2.616h3.42L-10.9,0H-9.72l-3.168-8.58H-14.1Zm3.36-6.372c.168-.492.4-1.212.4-1.212h.024s.216.732.384,1.212l.984,2.88h-2.808ZM-9.156,0h.972V-7.056h.024s.216.648.384,1.08L-5.424,0H-4.6l2.352-5.976c.156-.408.384-1.08.384-1.08h.024V0H-.8V-8.58h-1.4l-2.76,7.128h-.024L-7.776-8.58h-1.38Z" transform="translate(351 7534)" fill="#adb4b7"/>
    <path id="패스_1009" data-name="패스 1009" d="M3.924.168c1.848,0,3.156-.9,3.156-2.508,0-1.932-1.524-2.34-3.192-2.676C2.6-5.268,1.644-5.556,1.644-6.528c0-.888.768-1.38,1.932-1.38A1.977,1.977,0,0,1,5.784-6.072H6.8C6.588-7.656,5.7-8.748,3.552-8.748,1.812-8.748.636-7.9.636-6.48c0,1.62,1.3,2.052,2.808,2.388C4.98-3.756,6.012-3.48,6.012-2.3,6.012-1.236,5.16-.7,3.972-.7,2.352-.7,1.464-1.452,1.32-2.9H.264C.36-1.176,1.512.168,3.924.168ZM7.956,0h1.08V-4.056H13.62V0H14.7V-8.58H13.62v3.648H9.036V-8.58H7.956Zm7.308,0h1.1l.924-2.616h3.42L21.624,0H22.8L19.632-8.58H18.42Zm3.36-6.372c.168-.492.4-1.212.4-1.212h.024s.216.732.384,1.212l.984,2.88H17.6ZM23.364,0h1.008V-7.044H24.4s.36.648.636,1.068L28.968,0h1.1V-8.58H29.064v7.068H29.04s-.336-.66-.624-1.1L24.5-8.58h-1.14ZM38.04,0h.7V-4.536h-3.66V-3.6h2.58v.2a2.435,2.435,0,0,1-2.592,2.64c-1.74,0-2.964-1.4-2.964-3.5,0-2.016.936-3.564,3-3.564A2.207,2.207,0,0,1,37.5-6h1.116a3.214,3.214,0,0,0-3.492-2.76C32.424-8.76,31-6.78,31-4.26c0,2.6,1.62,4.44,4.032,4.44A3.121,3.121,0,0,0,37.7-1.128h.024Zm1.824,0h1.08V-3.6h2.34c1.872,0,2.772-.948,2.772-2.52a2.478,2.478,0,0,0-.576-1.632,2.556,2.556,0,0,0-2.04-.828H39.864Zm1.08-7.644H43.26c1.092,0,1.728.54,1.728,1.572,0,.984-.576,1.6-1.788,1.6H40.944ZM46.74,0h1.08V-3.624h2.388c1.152,0,1.656.444,1.74,1.7.1,1.44.132,1.764.312,1.92h1.164V-.048c-.156-.108-.3-.456-.4-1.836-.084-1.272-.36-1.872-1.236-2.184V-4.1A2.026,2.026,0,0,0,53.28-6.228,2.319,2.319,0,0,0,50.748-8.58H46.74Zm1.08-7.644h2.6c1.26,0,1.74.528,1.74,1.572,0,.972-.6,1.572-1.8,1.572H47.82ZM54.228,0h6.2V-1H55.308V-4.008h4.524V-4.92H55.308V-7.632h4.98V-8.58h-6.06Zm7.1,0h6.2V-1H62.412V-4.008h4.524V-4.92H62.412V-7.632h4.98V-8.58h-6.06Z" transform="translate(24 7534)" fill="#adb4b7"/>
  </g>
</svg>
