<svg xmlns="http://www.w3.org/2000/svg" xmlns:xlink="http://www.w3.org/1999/xlink" width="375" height="812" viewBox="0 0 375 812">
  <defs>
    <clipPath id="clip-path">
      <rect id="사각형_29" data-name="사각형 29" width="375" height="812" fill="none"/>
    </clipPath>
    <clipPath id="clip-path-2">
      <rect id="사각형_27" data-name="사각형 27" width="928.163" height="928.265" fill="#cde1f5"/>
    </clipPath>
  </defs>
  <g id="마스크_그룹_13" data-name="마스크 그룹 13" clip-path="url(#clip-path)">
    <g id="그룹_65" data-name="그룹 65" transform="translate(-3098.542 -3653.196)">
      <path id="패스_35" data-name="패스 35" d="M441.7,785.943l-.738-.16,90.766-424.257L67.356,173.168l.284-.7L531.884,360.778l39.494-184.61,24.66,211.446-.59-.24-63.013-25.561Zm90.9-424.879,62.549,25.37L571.161,180.8Z" transform="translate(2822.247 3614.05)" fill="#cde1f5"/>
      <g id="그룹_64" data-name="그룹 64" transform="translate(2787.961 3526.261)" clip-path="url(#clip-path-2)">
        <path id="패스_36" data-name="패스 36" d="M44.152,473.382h2.932c.388,3,2.506,4.91,5.933,4.91,3.462,0,5.687-2.331,5.687-5.862a5.432,5.432,0,0,0-5.687-5.758,6.352,6.352,0,0,0-5.438,2.508H44.718l2.683-13H60.294v2.648H49.486L47.9,466.107h.071a7.756,7.756,0,0,1,5.546-2.049,8.048,8.048,0,0,1,8.23,8.443c0,5.156-3.673,8.405-8.69,8.405s-8.687-3.038-8.9-7.524" transform="translate(22.474 232.204)" fill="#cde1f5"/>
        <path id="패스_37" data-name="패스 37" d="M160.258,585.682c-2.579-2.33-3.425-5.651-3.425-10.63,0-7.525,3.214-12.507,9.359-12.507a7.205,7.205,0,0,1,7.631,6.712h-2.934a4.43,4.43,0,0,0-4.627-4.2c-4.734,0-6.428,3.815-6.534,9.75h.071a7.769,7.769,0,0,1,6.64-3.358,8.074,8.074,0,0,1,7.983,8.126,8.177,8.177,0,0,1-8.125,8.263,8.48,8.48,0,0,1-6.039-2.155m11.408-6a5.7,5.7,0,1,0-11.408-.033,5.687,5.687,0,0,0,5.97,5.79c3.143,0,5.438-2.33,5.438-5.757" transform="translate(79.831 286.345)" fill="#cde1f5"/>
        <path id="패스_38" data-name="패스 38" d="M321.757,601.833v-.071H307.946v-2.65h16.919v2.439a31.741,31.741,0,0,0-10.314,21.755h-3.18c.531-8.44,4.947-17.094,10.385-21.473" transform="translate(156.75 304.958)" fill="#cde1f5"/>
        <path id="패스_39" data-name="패스 39" d="M456.057,572.509c0-3.5,2.26-5.4,4.981-6.287v-.106a5.388,5.388,0,0,1-3.78-5.158c0-3.849,3.5-6.323,7.947-6.323s7.948,2.437,7.948,6.323a5.356,5.356,0,0,1-3.709,5.158v.106a6.469,6.469,0,0,1,4.91,6.287c0,5.509-4.592,7.453-9.042,7.453s-9.255-1.977-9.255-7.453m15.329,0c0-3.178-2.3-5.158-6.181-5.158-3.815,0-6.11,1.98-6.11,5.158,0,3.145,2.33,4.981,6.217,4.981,3.779,0,6.074-1.871,6.074-4.981m-1.13-11.444c0-2.473-1.942-3.955-5.051-3.955s-5.051,1.482-5.051,3.955,1.944,3.957,5.051,3.957,5.051-1.483,5.051-3.957" transform="translate(232.14 282.319)" fill="#cde1f5"/>
        <path id="패스_40" data-name="패스 40" d="M563.24,460.33h3c.213,2.65,2.048,4.592,5.3,4.592a5.155,5.155,0,0,0,4.1-1.588c1.447-1.556,2.012-4.274,2.153-7.879h-.071a8.24,8.24,0,1,1-6.252-13.315,8.929,8.929,0,0,1,5.58,1.8c2.755,2.119,3.638,5.58,3.638,10.984,0,4.91-.988,8.443-3.391,10.562a8.413,8.413,0,0,1-5.686,1.944c-4.77,0-8.161-2.828-8.371-7.1m14.127-10.03a5.681,5.681,0,0,0-5.9-5.757,5.478,5.478,0,0,0-5.722,5.757,5.6,5.6,0,0,0,5.686,5.793c3.64,0,5.935-2.366,5.935-5.793" transform="translate(286.572 225.056)" fill="#cde1f5"/>
        <path id="패스_41" data-name="패스 41" d="M600.061,298.325h-5.3v-1.978c2.967-.069,5.511-1.165,5.97-4.732h2.3v24.337h-2.968Z" transform="translate(302.744 148.436)" fill="#cde1f5"/>
        <path id="패스_42" data-name="패스 42" d="M602.626,303.977c0-7.841,3.708-12.644,9.43-12.644s9.36,4.732,9.36,12.644c0,7.7-3.355,12.646-9.4,12.646-5.97,0-9.4-4.944-9.4-12.646m15.718,0c0-6.145-2.084-10.1-6.288-10.1-4.274,0-6.358,3.849-6.358,10.1,0,6.146,2.084,10.068,6.358,10.068,4.308,0,6.288-3.816,6.288-10.068" transform="translate(306.746 148.293)" fill="#cde1f5"/>
        <path id="패스_43" data-name="패스 43" d="M304.161,6.711h-5.3V4.732c2.967-.069,5.511-1.165,5.97-4.732h2.3V24.336h-2.968Z" transform="translate(152.126)" fill="#cde1f5"/>
        <path id="패스_44" data-name="패스 44" d="M222.942,26.21h3.11c.423,4.275,3.036,6.5,7.8,6.5,3.5,0,6-1.591,6-4.734,0-3.462-3.038-4.274-7.559-5.262-4.45-.991-8.265-2.261-8.265-7.031,0-4.166,3.462-6.674,8.583-6.674,6.323,0,8.936,3.213,9.572,7.876h-3c-.46-3.6-2.792-5.4-6.5-5.4-3.427,0-5.687,1.447-5.687,4.062,0,2.861,2.825,3.708,6.6,4.45,4.91.988,9.4,2.19,9.4,7.877,0,4.732-3.851,7.381-9.29,7.381-7.1,0-10.492-3.955-10.774-9.042" transform="translate(113.481 4.586)" fill="#cde1f5"/>
        <path id="패스_45" data-name="패스 45" d="M85.844,91.248h3.178v10.738h13.494V91.248h3.178V116.5h-3.178V104.564H89.022V116.5H85.844Z" transform="translate(43.696 46.447)" fill="#cde1f5"/>
        <path id="패스_46" data-name="패스 46" d="M16.848,224.381h3.567l9.326,25.255H26.279l-2.685-7.7H13.528l-2.719,7.7H7.56Zm-2.4,14.977h8.265l-2.9-8.478c-.5-1.414-1.13-3.567-1.13-3.567h-.071s-.673,2.119-1.166,3.567Z" transform="translate(3.848 114.214)" fill="#cde1f5"/>
        <path id="패스_47" data-name="패스 47" d="M10.354,384.031H13.71l11.514,17.554c.848,1.305,1.835,3.249,1.835,3.249h.072v-20.8H30.1v25.253H26.849L15.264,391.694c-.813-1.234-1.873-3.142-1.873-3.142h-.072v20.732H10.354Z" transform="translate(5.27 195.478)" fill="#cde1f5"/>
        <path id="패스_48" data-name="패스 48" d="M108.453,537.737h-.071a9.189,9.189,0,0,1-7.877,3.851c-7.1,0-11.867-5.405-11.867-13.07,0-7.417,4.2-13.246,12.151-13.246,5.864,0,9.466,3.18,10.278,8.125h-3.284c-.708-3.358-3.072-5.371-7.065-5.371-6.075,0-8.831,4.557-8.831,10.492,0,6.181,3.6,10.314,8.725,10.314,5.193,0,7.628-3.533,7.628-7.771v-.6h-7.593v-2.755h10.774v13.35H109.37Z" transform="translate(45.118 262.282)" fill="#cde1f5"/>
        <path id="패스_49" data-name="패스 49" d="M227.563,591.577h10.525a7.526,7.526,0,0,1,6,2.435,7.3,7.3,0,0,1,1.7,4.8c0,4.627-2.65,7.417-8.161,7.417h-6.887v10.6h-3.178Zm3.178,12.078h6.64c3.569,0,5.265-1.8,5.265-4.7,0-3.038-1.874-4.628-5.087-4.628h-6.818Z" transform="translate(115.833 301.122)" fill="#cde1f5"/>
        <path id="패스_50" data-name="패스 50" d="M384.174,583.628h11.8c4.452,0,7.453,2.792,7.453,6.923,0,3.072-1.342,5.262-4.379,6.25v.107c2.577.919,3.391,2.684,3.638,6.428.282,4.062.706,5.087,1.166,5.405v.14h-3.427c-.53-.459-.637-1.413-.919-5.653-.246-3.708-1.731-5.014-5.122-5.014h-7.029v10.667h-3.178Zm3.178,12.009h7.488c3.533,0,5.3-1.766,5.3-4.625,0-3.075-1.414-4.628-5.123-4.628h-7.664Z" transform="translate(195.551 297.076)" fill="#cde1f5"/>
        <path id="패스_51" data-name="패스 51" d="M510.635,503.915h17.837v2.79H513.813v7.983H527.13v2.685H513.813v8.865H528.9v2.93H510.635Z" transform="translate(259.921 256.501)" fill="#cde1f5"/>
        <path id="패스_52" data-name="패스 52" d="M591.886,368.326h17.836v2.792H595.064V379.1h13.317v2.685H595.064v8.865h15.084v2.932H591.886Z" transform="translate(301.28 187.484)" fill="#cde1f5"/>
        <path id="패스_53" data-name="패스 53" d="M572.6,219.533h3.178v10.737H589.27V219.533h3.178v25.253H589.27V232.848H575.776v11.938H572.6Z" transform="translate(291.462 111.746)" fill="#cde1f5"/>
        <path id="패스_54" data-name="패스 54" d="M462,152.4c0-7.56,4.732-13.174,12.362-13.174s12.362,5.614,12.362,13.174-4.732,13.174-12.362,13.174S462,159.955,462,152.4m21.475,0c0-5.935-3.178-10.42-9.113-10.42s-9.113,4.485-9.113,10.42,3.178,10.384,9.113,10.384,9.113-4.45,9.113-10.384" transform="translate(235.167 70.867)" fill="#cde1f5"/>
        <path id="패스_55" data-name="패스 55" d="M327.027,179.772h4.061l8.2,20.98h.071l8.124-20.98h4.132v25.253h-3.038V184.258H348.5s-.672,1.977-1.13,3.178l-6.922,17.589h-2.439l-6.923-17.589c-.493-1.272-1.13-3.178-1.13-3.178h-.069v20.767h-2.861Z" transform="translate(166.462 91.507)" fill="#cde1f5"/>
        <path id="패스_56" data-name="패스 56" d="M262.943,311.863h3.11c.423,4.275,3.036,6.5,7.8,6.5,3.5,0,6-1.592,6-4.734,0-3.463-3.038-4.274-7.559-5.263-4.45-.99-8.265-2.26-8.265-7.031,0-4.166,3.462-6.674,8.583-6.674,6.323,0,8.936,3.214,9.572,7.877h-3c-.46-3.6-2.792-5.405-6.5-5.405-3.427,0-5.687,1.449-5.687,4.062,0,2.861,2.825,3.709,6.6,4.45,4.91.99,9.4,2.19,9.4,7.879,0,4.732-3.851,7.381-9.289,7.381-7.1,0-10.492-3.957-10.774-9.042" transform="translate(133.842 149.988)" fill="#cde1f5"/>
        <path id="패스_57" data-name="패스 57" d="M321.721,389.367h10.525a7.532,7.532,0,0,1,6,2.437,7.3,7.3,0,0,1,1.7,4.8c0,4.627-2.65,7.418-8.161,7.418H324.9v10.595h-3.178Zm3.178,12.081h6.64c3.569,0,5.265-1.8,5.265-4.7,0-3.039-1.874-4.628-5.087-4.628H324.9Z" transform="translate(163.761 198.194)" fill="#cde1f5"/>
        <path id="패스_58" data-name="패스 58" d="M421.811,345.828h3.567l9.326,25.255h-3.462l-2.685-7.7H418.491l-2.719,7.7h-3.249Zm-2.4,14.977h8.265l-2.9-8.478c-.5-1.414-1.13-3.567-1.13-3.567h-.071s-.673,2.119-1.166,3.567Z" transform="translate(209.981 176.032)" fill="#cde1f5"/>
        <path id="패스_59" data-name="패스 59" d="M159.52,57.263c3.178-1.836,5.122-3.072,5.122-6,0-2.967-2.049-4.98-5.263-4.98a5.016,5.016,0,0,0-3.849,1.52c-.954,1.023-1.378,2.366-1.378,4.838h-3.107c0-3.107.812-5.087,2.294-6.57a8.875,8.875,0,0,1,6.288-2.261c4.91,0,8.09,3.11,8.09,7.418,0,4.663-3.18,6.216-7.065,8.371-2.614,1.449-5.97,3.427-6.64,6.111h13.21v2.825H150.442c.284-6.463,4.839-8.831,9.078-11.268" transform="translate(76.577 22.298)" fill="#cde1f5"/>
        <path id="패스_60" data-name="패스 60" d="M35.959,173.072h2.932c.107,3.884,2.615,6.039,6.6,6.039,3.356,0,5.722-1.66,5.722-5.087,0-3.071-2.3-4.7-6.357-4.7H43.343v-2.3h1.483c3.779,0,5.687-1.59,5.687-4.169,0-2.648-2.368-4.237-5.265-4.237a5.221,5.221,0,0,0-5.58,5.617h-2.9c.035-4.769,3.249-7.948,8.583-7.948,4.485,0,8.052,2.437,8.052,6.64,0,2.721-1.66,4.31-3.99,5.087v.107c3.391.883,4.873,3.036,4.873,6.179,0,4.628-3.777,7.278-8.687,7.278-5.334,0-9.538-3-9.644-8.512" transform="translate(18.304 79.556)" fill="#cde1f5"/>
        <path id="패스_61" data-name="패스 61" d="M11.41,325.831H0v-2.647l11.976-15.86h2.331v16.142H18.3v2.365h-3.99v5.935h-2.9Zm-8.549-2.365H11.41V312.127h-.071L2.861,323.36Z" transform="translate(0 156.433)" fill="#cde1f5"/>
        <path id="패스_62" data-name="패스 62" d="M529.187,175.6h-5.3v-1.978c2.967-.069,5.511-1.165,5.97-4.732h2.3v24.337h-2.968Z" transform="translate(266.668 85.965)" fill="#cde1f5"/>
        <path id="패스_63" data-name="패스 63" d="M536.815,175.6h-5.3v-1.978c2.967-.069,5.511-1.165,5.97-4.732h2.3v24.337h-2.968Z" transform="translate(270.551 85.965)" fill="#cde1f5"/>
        <path id="패스_64" data-name="패스 64" d="M395.53,150.9h-5.3v-1.978c2.967-.069,5.511-1.163,5.97-4.732h2.3v24.337H395.53Z" transform="translate(198.634 73.395)" fill="#cde1f5"/>
        <path id="패스_65" data-name="패스 65" d="M406.868,157.389c3.178-1.838,5.122-3.072,5.122-6,0-2.967-2.049-4.981-5.263-4.981a5.011,5.011,0,0,0-3.849,1.521c-.954,1.022-1.378,2.365-1.378,4.838h-3.107c0-3.109.812-5.087,2.294-6.57a8.868,8.868,0,0,1,6.288-2.26c4.91,0,8.09,3.109,8.09,7.417,0,4.663-3.179,6.217-7.065,8.372-2.614,1.449-5.97,3.425-6.64,6.112h13.21v2.825H397.79c.284-6.465,4.839-8.831,9.078-11.268" transform="translate(202.482 73.264)" fill="#cde1f5"/>
        <path id="패스_66" data-name="패스 66" d="M287.291,237.658h-5.3v-1.978c2.967-.069,5.511-1.166,5.97-4.732h2.3v24.336h-2.968Z" transform="translate(143.539 117.556)" fill="#cde1f5"/>
        <path id="패스_67" data-name="패스 67" d="M289.246,247.443h2.932c.107,3.886,2.615,6.041,6.6,6.041,3.356,0,5.722-1.661,5.722-5.087,0-3.072-2.3-4.7-6.357-4.7H296.63v-2.3h1.483c3.779,0,5.687-1.589,5.687-4.168,0-2.65-2.368-4.237-5.265-4.237a5.22,5.22,0,0,0-5.58,5.615h-2.9c.035-4.769,3.249-7.947,8.583-7.947,4.485,0,8.052,2.437,8.052,6.64,0,2.721-1.66,4.31-3.99,5.087v.107c3.391.881,4.873,3.036,4.873,6.179,0,4.628-3.777,7.278-8.687,7.278-5.334,0-9.538-3-9.644-8.514" transform="translate(147.231 117.413)" fill="#cde1f5"/>
        <path id="패스_68" data-name="패스 68" d="M280.608,358.428h-5.3v-1.978c2.967-.069,5.511-1.165,5.97-4.732h2.3v24.336h-2.968Z" transform="translate(140.137 179.03)" fill="#cde1f5"/>
        <path id="패스_69" data-name="패스 69" d="M294.159,370.154H282.751v-2.648l11.974-15.86h2.333v16.142h3.99v2.366h-3.99v5.933h-2.9Zm-8.547-2.366h8.547V356.449h-.071l-8.476,11.233Z" transform="translate(143.925 178.994)" fill="#cde1f5"/>
        <path id="패스_70" data-name="패스 70" d="M412.687,292.767h-5.3v-1.978c2.967-.069,5.511-1.166,5.97-4.732h2.3v24.336h-2.968Z" transform="translate(207.368 145.607)" fill="#cde1f5"/>
        <path id="패스_71" data-name="패스 71" d="M418.677,308.91c-2.579-2.33-3.425-5.653-3.425-10.631,0-7.524,3.214-12.505,9.359-12.505a7.2,7.2,0,0,1,7.631,6.712h-2.934a4.43,4.43,0,0,0-4.627-4.2c-4.734,0-6.428,3.813-6.534,9.748h.071a7.768,7.768,0,0,1,6.64-3.356,8.073,8.073,0,0,1,7.983,8.125,8.177,8.177,0,0,1-8.125,8.265,8.487,8.487,0,0,1-6.039-2.155m11.41-6a5.705,5.705,0,1,0-11.41-.035,5.687,5.687,0,0,0,5.97,5.792c3.145,0,5.44-2.33,5.44-5.757" transform="translate(211.37 145.464)" fill="#cde1f5"/>
        <path id="패스_72" data-name="패스 72" d="M375.934,402.808h-5.3v-1.98c2.965-.068,5.509-1.164,5.968-4.732h2.3v24.339h-2.97Z" transform="translate(188.66 201.619)" fill="#cde1f5"/>
        <path id="패스_73" data-name="패스 73" d="M378.007,413.391h2.932c.388,3,2.506,4.91,5.933,4.91,3.462,0,5.688-2.331,5.688-5.866a5.43,5.43,0,0,0-5.687-5.755,6.344,6.344,0,0,0-5.438,2.508h-2.861l2.683-13h12.893v2.647H383.341l-1.591,7.278h.071a7.763,7.763,0,0,1,5.546-2.049,8.048,8.048,0,0,1,8.23,8.441c0,5.158-3.673,8.407-8.69,8.407s-8.687-3.036-8.9-7.522" transform="translate(192.412 201.667)" fill="#cde1f5"/>
        <path id="패스_74" data-name="패스 74" d="M307.9,36.242a3.965,3.965,0,1,1-3.966-3.966,3.964,3.964,0,0,1,3.966,3.966" transform="translate(152.689 16.429)" fill="#cde1f5"/>
        <path id="패스_75" data-name="패스 75" d="M165.685,76.426a3.965,3.965,0,1,1-3.964-3.964,3.965,3.965,0,0,1,3.964,3.964" transform="translate(80.3 36.884)" fill="#cde1f5"/>
        <path id="패스_76" data-name="패스 76" d="M72.752,174.038a3.965,3.965,0,1,1-3.964-3.964,3.964,3.964,0,0,1,3.964,3.964" transform="translate(32.995 86.57)" fill="#cde1f5"/>
        <path id="패스_77" data-name="패스 77" d="M41.526,319.741a3.965,3.965,0,1,1-3.966-3.964,3.966,3.966,0,0,1,3.966,3.964" transform="translate(17.101 160.736)" fill="#cde1f5"/>
        <path id="패스_78" data-name="패스 78" d="M76.506,459.886a3.965,3.965,0,1,1-3.964-3.967,3.963,3.963,0,0,1,3.964,3.967" transform="translate(34.906 232.07)" fill="#cde1f5"/>
        <path id="패스_79" data-name="패스 79" d="M179.4,552.9a3.965,3.965,0,1,1-3.966-3.966A3.964,3.964,0,0,1,179.4,552.9" transform="translate(87.279 279.417)" fill="#cde1f5"/>
        <path id="패스_80" data-name="패스 80" d="M320.483,580.293a3.965,3.965,0,1,1-3.964-3.966,3.964,3.964,0,0,1,3.964,3.966" transform="translate(159.095 293.36)" fill="#cde1f5"/>
        <path id="패스_81" data-name="패스 81" d="M454.947,545.393a3.965,3.965,0,1,1-3.966-3.964,3.964,3.964,0,0,1,3.966,3.964" transform="translate(227.539 275.596)" fill="#cde1f5"/>
        <path id="패스_82" data-name="패스 82" d="M553.642,443.024a3.965,3.965,0,1,1-3.966-3.964,3.964,3.964,0,0,1,3.966,3.964" transform="translate(277.776 223.489)" fill="#cde1f5"/>
        <path id="패스_83" data-name="패스 83" d="M590.376,300.892a3.965,3.965,0,1,1-3.964-3.964,3.965,3.965,0,0,1,3.964,3.964" transform="translate(296.475 151.141)" fill="#cde1f5"/>
        <path id="패스_84" data-name="패스 84" d="M521.848,196.979a3.965,3.965,0,1,1-3.966-3.964,3.965,3.965,0,0,1,3.966,3.964" transform="translate(261.593 98.248)" fill="#cde1f5"/>
        <path id="패스_85" data-name="패스 85" d="M406.593,177.792a3.965,3.965,0,1,1-3.966-3.966,3.964,3.964,0,0,1,3.966,3.966" transform="translate(202.926 88.48)" fill="#cde1f5"/>
        <path id="패스_86" data-name="패스 86" d="M306.053,266.531a3.965,3.965,0,1,1-3.966-3.966,3.964,3.964,0,0,1,3.966,3.966" transform="translate(151.749 133.65)" fill="#cde1f5"/>
        <path id="패스_87" data-name="패스 87" d="M294.975,344.471a3.965,3.965,0,1,1-3.966-3.966,3.964,3.964,0,0,1,3.966,3.966" transform="translate(146.111 173.323)" fill="#cde1f5"/>
        <path id="패스_88" data-name="패스 88" d="M422.711,315.987a3.965,3.965,0,1,1-3.964-3.964,3.965,3.965,0,0,1,3.964,3.964" transform="translate(211.13 158.825)" fill="#cde1f5"/>
        <path id="패스_89" data-name="패스 89" d="M382.747,383.772a3.965,3.965,0,1,1-3.964-3.966,3.964,3.964,0,0,1,3.964,3.966" transform="translate(190.788 193.327)" fill="#cde1f5"/>
      </g>
    </g>
  </g>
</svg>
