<svg xmlns="http://www.w3.org/2000/svg" width="290.96" height="17.424" viewBox="0 0 290.96 17.424">
  <path id="패스_614" data-name="패스 614" d="M11.328-7.224l-1.2,4.44c-.48,1.8-1.1,1.968-2.016,1.968H7.656c-.12,0-.168.1-.192.192l-.1.456c-.024.144.024.24.24.24C7.992.072,8.736,0,10.416,0c1.632,0,2.592.072,2.88.072.216,0,.264-.072.288-.216l.072-.432c.024-.168-.048-.24-.192-.24h-.648c-.48,0-.888-.288-.888-.672a7.361,7.361,0,0,1,.24-1.392L15.7-16.2c.048-.168-.048-.24-.24-.24a4.159,4.159,0,0,0-.792.192,7.024,7.024,0,0,1-1.128.168c-.456.024-.552.072-.672.24L1.752-2.568a4.106,4.106,0,0,1-2.9,1.752h-.36c-.1,0-.144.048-.168.192L-1.8-.1c-.024.12.1.168.216.168C-1.32.072-.48,0,1.1,0c1.872,0,2.9.072,3.144.072.168,0,.216-.072.24-.192l.1-.456c.048-.192-.048-.24-.168-.24H3.552c-.528,0-.84-.216-.84-.576A4.294,4.294,0,0,1,3.7-3l3.36-4.224ZM7.68-8.064l5.232-6.5c.192-.216.624-.168.528.168L11.592-8.064ZM15.744-.792c-.048.168-.024.192.1.24l.312.12c.144.072.192.024.24-.072a5.94,5.94,0,0,1,.5-.912.326.326,0,0,1,.552-.048A4.915,4.915,0,0,0,20.976.36,4.3,4.3,0,0,0,25.32-4.272c0-2.52-1.512-3.864-2.616-4.968-1.1-1.128-2.16-1.848-2.16-3.648A2.48,2.48,0,0,1,22.92-15.5c2.5,0,2.808,3.048,2.664,4.008-.024.144.072.192.216.216l.336.024a.168.168,0,0,0,.192-.144l.864-4.56c.024-.1-.024-.144-.168-.168l-.312-.024c-.168-.024-.216,0-.24.072-.1.5-.192.84-.384.84a.573.573,0,0,1-.336-.12,5.2,5.2,0,0,0-2.832-1.08,4.221,4.221,0,0,0-4.08,4.224c0,2.256,1.176,3.48,2.664,5.112,1.056,1.152,2.232,2.088,2.232,3.7A2.782,2.782,0,0,1,20.952-.576c-1.488,0-3.624-1.632-2.76-5.208.048-.168-.048-.216-.168-.264l-.24-.072c-.144-.024-.216-.024-.264.1ZM32.616-7.656c.48,0,.624.072.84.336.552.7,3.7,5.544,3.888,5.832.216.336-.192.672-.72.672h-.36c-.144,0-.192.072-.216.24L36-.192c-.024.192.048.264.216.264C36.5.072,37.824,0,39.24,0c1.512,0,2.16.072,2.448.072.216,0,.264-.048.312-.24l.1-.408a.2.2,0,0,0-.216-.24h-.7A2.971,2.971,0,0,1,39.456-1.9c-.576-.7-4.1-5.808-4.272-6.144.336-.384,6.24-5.664,7.224-6.432a3.124,3.124,0,0,1,1.9-.792h.744c.168,0,.192-.1.24-.24l.1-.432c.024-.12-.048-.216-.264-.216s-.888.072-2.328.072c-1.392,0-2.4-.072-2.64-.072a.238.238,0,0,0-.264.192l-.1.432a.182.182,0,0,0,.192.24h.288c.648,0,.744.384.408.816A71.882,71.882,0,0,1,34.824-9a2.254,2.254,0,0,1-1.992.672l1.8-5.664c.288-.888.744-1.272,1.56-1.272h.576c.192,0,.264-.024.288-.192l.072-.456c.024-.144,0-.24-.144-.24-.288,0-1.008.072-2.928.072-1.608,0-2.472-.072-2.688-.072-.168,0-.24.024-.288.144l-.168.5c-.048.144.024.24.216.24h.6c.912,0,1.128.48.792,1.536l-3.7,11.472c-.312.984-.912,1.44-1.536,1.44h-.672c-.192,0-.24.072-.264.192l-.1.432c-.024.144.048.264.192.264.168,0,.888-.072,2.688-.072,1.632,0,2.688.072,2.952.072.216,0,.288-.072.312-.192l.1-.456c.024-.168-.048-.24-.168-.24h-.6c-.768,0-1.152-.528-.816-1.584ZM57.72.528C61.848.528,65.448-1.92,65.448-6a5.41,5.41,0,0,0-.864-3.12c-.264-.408-.216-.576.336-.648,2.424-.312,3.912-1.416,3.912-3.648a2.657,2.657,0,0,0-2.76-2.52,1.627,1.627,0,0,0-1.824,1.488.919.919,0,0,0,1.032.864.941.941,0,0,0,.984-1.008c-.048-.216-.048-.528.264-.528A1.68,1.68,0,0,1,67.9-13.44c0,1.344-1.248,2.112-3.84,2.112-.432,0-1.656-.168-2.568-.168a3.409,3.409,0,0,0-3.672,3.408A2.823,2.823,0,0,0,60.36-5.136a1.322,1.322,0,0,0,1.464-1.176A1.111,1.111,0,0,0,60.7-7.536a1.034,1.034,0,0,0-1.032.96c0,.216-.1.36-.216.36-.216,0-.768-.624-.768-1.728a2.219,2.219,0,0,1,2.256-2.208,3.681,3.681,0,0,1,3.576,3.744c0,2.28-2.328,5.136-6.72,5.136-4.44,0-7.032-2.376-7.032-5.328a3.87,3.87,0,0,1,1.392-3.24c.312-.192.408-.144.72.12a3.076,3.076,0,0,0,1.344.48c.384,0,.7-.552.7-1.128,0-.36-.792-.576-1.224-.576a2.6,2.6,0,0,0-.84.12,3.3,3.3,0,0,1-.6-1.9,2.483,2.483,0,0,1,2.3-2.76,1.376,1.376,0,0,1,1.44,1.632c-.048.264-.024.432.072.432A1.587,1.587,0,0,0,57.192-15c0-1.176-1.008-1.9-2.328-1.9a3.46,3.46,0,0,0-3.6,3.456,4.594,4.594,0,0,0,.888,2.856,5.342,5.342,0,0,0-2.784,4.92C49.368-3.216,51.024.528,57.72.528ZM83.3-7.224l-1.2,4.44c-.48,1.8-1.1,1.968-2.016,1.968h-.456c-.12,0-.168.1-.192.192l-.1.456c-.024.144.024.24.24.24C79.968.072,80.712,0,82.392,0c1.632,0,2.592.072,2.88.072.216,0,.264-.072.288-.216l.072-.432c.024-.168-.048-.24-.192-.24h-.648c-.48,0-.888-.288-.888-.672a7.361,7.361,0,0,1,.24-1.392L87.672-16.2c.048-.168-.048-.24-.24-.24a4.159,4.159,0,0,0-.792.192,7.024,7.024,0,0,1-1.128.168c-.456.024-.552.072-.672.24L73.728-2.568a4.106,4.106,0,0,1-2.9,1.752h-.36c-.1,0-.144.048-.168.192l-.12.528c-.024.12.1.168.216.168C70.656.072,71.5,0,73.08,0c1.872,0,2.9.072,3.144.072.168,0,.216-.072.24-.192l.1-.456c.048-.192-.048-.24-.168-.24h-.864c-.528,0-.84-.216-.84-.576A4.294,4.294,0,0,1,75.672-3l3.36-4.224Zm-3.648-.84,5.232-6.5c.192-.216.624-.168.528.168L83.568-8.064Zm9.528,4.776c-.576,1.8-1.08,2.472-2.256,2.472H86.28c-.144,0-.192.072-.216.192l-.072.432c-.024.168.048.264.192.264.24,0,1.032-.072,2.688-.072,1.752,0,2.784.072,3.024.072.216,0,.24-.048.288-.192l.072-.456c.024-.144-.048-.24-.216-.24H91.1c-1.08,0-1.248-.792-.816-2.232L93.36-13.2c.1-.336.288-.336.432-.024L99.5-.48c.288.624.72.648.984-.144l4.656-13.32c.408-1.152.72-1.32,1.32-1.32h.6c.144,0,.192-.024.216-.192l.072-.384c.048-.192-.024-.312-.216-.312-.336,0-.816.072-2.064.072-1.7,0-2.448-.072-2.736-.072-.168,0-.216.072-.24.192l-.072.432c-.024.192.048.264.264.264h.84c.768,0,1.08.48.768,1.392l-3.144,9.384c-.336.96-.408.96-.6.552l-5.16-11.52c-.12-.264-.144-.624-.5-.624-2.856,0-3.816-.072-4.128-.072-.192,0-.216.072-.264.24l-.1.36c-.048.192.048.288.192.288H91.1c1.56,0,1.632.672,1.392,1.416Zm15.96,2.5c-.048.168-.024.192.1.24l.312.12c.144.072.192.024.24-.072a5.94,5.94,0,0,1,.5-.912.326.326,0,0,1,.552-.048A4.915,4.915,0,0,0,110.376.36a4.3,4.3,0,0,0,4.344-4.632c0-2.52-1.512-3.864-2.616-4.968-1.1-1.128-2.16-1.848-2.16-3.648A2.48,2.48,0,0,1,112.32-15.5c2.5,0,2.808,3.048,2.664,4.008-.024.144.072.192.216.216l.336.024a.168.168,0,0,0,.192-.144l.864-4.56c.024-.1-.024-.144-.168-.168l-.312-.024c-.168-.024-.216,0-.24.072-.1.5-.192.84-.384.84a.573.573,0,0,1-.336-.12,5.2,5.2,0,0,0-2.832-1.08,4.221,4.221,0,0,0-4.08,4.224c0,2.256,1.176,3.48,2.664,5.112,1.056,1.152,2.232,2.088,2.232,3.7a2.782,2.782,0,0,1-2.784,2.832c-1.488,0-3.624-1.632-2.76-5.208.048-.168-.048-.216-.168-.264l-.24-.072c-.144-.024-.216-.024-.264.1ZM123.168-13.92c.192-1.032.456-1.344,1.272-1.344h.528c.168,0,.216-.072.24-.192l.1-.456c.024-.168-.024-.24-.24-.24-.288,0-1.2.072-2.688.072-1.248,0-2.208-.072-2.448-.072-.216,0-.264.072-.288.192l-.1.456c-.024.192.048.24.24.24h.576c.792,0,.912.432.768,1.272L118.992-.576c-.12.744-.048,1.056.192,1.056.36,0,.576-.264.84-.552.888-.96,8.04-10.776,8.28-11.088.168-.216.336-.168.288.168L127.44-.24c-.048.432.072.72.384.72.288,0,.576-.384.792-.624,1.032-1.2,4.3-6.048,4.968-7.152.6-.936,4.152-6.864,4.44-7.272a1.629,1.629,0,0,1,1.392-.7h.408c.1,0,.168-.048.192-.192l.1-.456c.024-.144-.048-.24-.216-.24-.36,0-.984.072-2.28.072-1.128,0-1.7-.072-2.016-.072-.168,0-.24.072-.264.24l-.1.456c-.024.144.024.192.144.192h.384c.672,0,.72.624.48,1.3-.24.648-1.7,3.264-2.784,5.088a63.442,63.442,0,0,1-3.624,5.592c-.168.144-.288.1-.24-.216l1.272-10.56c.12-.912.336-1.2.84-1.2h.528a.225.225,0,0,0,.264-.192l.12-.456c.048-.168-.048-.24-.216-.24-.288,0-.912.072-2.256.072-1.2,0-1.824-.072-2.064-.072-.216,0-.264.048-.288.192l-.12.552c-.024.1.048.144.192.144h.408a.708.708,0,0,1,.744.7,3.817,3.817,0,0,1-.792,1.992c-.24.336-6.216,8.688-6.6,9.072-.264.264-.408.192-.36-.048ZM138.7-2.16a1.652,1.652,0,0,1-1.728,1.344h-.888c-.12,0-.144.048-.192.192l-.072.5c-.048.144.024.192.192.192.1,0,.288-.024.72-.048.456,0,1.152-.024,2.256-.024h2.784c1.656,0,3.432.024,4.848.024,1.416.024,2.472.048,2.664.048.288,0,.408-.048.528-.408l1.224-3.48c.072-.216.024-.264-.072-.336l-.24-.144a.181.181,0,0,0-.288.048l-1.92,2.424a2.281,2.281,0,0,1-1.92,1.008h-6.216L142.7-8.184h1.44c1.9,0,2.856.048,2.688,2.04-.024.144-.024.168.1.192l.384.048c.1.024.144,0,.168-.144l1.3-4.776c.024-.12-.048-.168-.144-.192l-.36-.072c-.1-.024-.144.024-.168.12-.672,1.968-1.464,2.016-2.856,2.016h-2.3l2.064-6.312h4.368a.412.412,0,0,1,.384.192l2.256,2.9c.1.12.12.12.24.072l.264-.1c.144-.072.168-.1.144-.216L151.9-15.7c-.1-.384-.144-.456-.5-.456-.264,0-.864.024-1.848.024-.984.024-2.352.048-4.176.048h-1.536c-1.152,0-1.9-.024-2.4-.048-.5,0-.768-.024-.912-.024-.168,0-.24.024-.288.168l-.12.456c-.048.192,0,.264.144.264h.768c.816,0,1.752.36,1.32,1.7Zm15.168.144a1.483,1.483,0,0,1-1.488,1.2h-.456c-.168,0-.216.048-.24.192l-.1.5c-.024.12,0,.192.144.192.288,0,1.224-.072,2.64-.072,2.016,0,3.1.072,3.36.072.168,0,.264-.024.288-.144l.072-.552c.024-.12-.024-.192-.168-.192h-.984c-1.008,0-1.32-.36-.888-1.728l1.7-5.256c.912,0,2.256-.12,2.952,1.224.288.576,2.424,5.3,2.76,5.88s.456.768.648.768c.264,0,.72-.072,1.776-.072,1.152,0,1.536.072,1.776.072.168,0,.216-.072.24-.192l.072-.456c.024-.144,0-.24-.168-.24h-.6c-1.032,0-1.512-.408-2.112-1.392-.432-.72-2.088-4.128-2.208-4.368-.264-.5-.624-1.248-1.2-1.44v-.048c2.808-.336,5.4-2.256,5.4-4.656,0-3.264-3.7-3.432-5.424-3.432-.384,0-2.856.072-5.376.072-.24,0-.288.048-.312.192l-.12.5c-.024.12,0,.192.192.192h.936c.864,0,.96.432.7,1.2Zm6.264-13.344c.288-.024.552-.024.984-.024,2.928,0,3.816,1.656,3.816,2.664a3.861,3.861,0,0,1-2.52,3.552,10.317,10.317,0,0,1-4.416.6Zm15.5,12.624c-.264,1.032-.6,1.92-1.9,1.92h-.5a.247.247,0,0,0-.264.24l-.048.408c-.024.168.048.24.192.24.336,0,1.2-.072,2.832-.072,1.92,0,2.9.072,3.192.072.216,0,.264-.048.288-.192l.072-.456c.024-.144-.024-.24-.192-.24h-.912c-.96,0-1.008-.84-.768-1.752L178.8-6.96a9.482,9.482,0,0,0,2.424.288c4.848,0,6.912-2.664,6.912-5.088a3.579,3.579,0,0,0-1.44-3.264c-1.152-.96-2.472-1.128-4.752-1.128-.5,0-4.776.072-5.016.072s-.288.024-.336.192l-.12.456c-.024.12,0,.24.12.24h1.128c1.08,0,.984.84.768,1.608Zm5.376-12.6a5.519,5.519,0,0,1,.936-.048c1.632,0,4.08.576,4.08,3.432,0,2.016-1.416,4.512-5.016,4.512a3.8,3.8,0,0,1-2.04-.384Zm7.464,13.32a1.483,1.483,0,0,1-1.488,1.2h-.456c-.168,0-.216.048-.24.192l-.1.5c-.024.12,0,.192.144.192.288,0,1.224-.072,2.64-.072,2.016,0,3.1.072,3.36.072.168,0,.264-.024.288-.144l.072-.552c.024-.12-.024-.192-.168-.192h-.984c-1.008,0-1.32-.36-.888-1.728l1.7-5.256c.912,0,2.256-.12,2.952,1.224.288.576,2.424,5.3,2.76,5.88s.456.768.648.768c.264,0,.72-.072,1.776-.072,1.152,0,1.536.072,1.776.072.168,0,.216-.072.24-.192l.072-.456c.024-.144,0-.24-.168-.24h-.6c-1.032,0-1.512-.408-2.112-1.392-.432-.72-2.088-4.128-2.208-4.368-.264-.5-.624-1.248-1.2-1.44v-.048c2.808-.336,5.4-2.256,5.4-4.656,0-3.264-3.7-3.432-5.424-3.432-.384,0-2.856.072-5.376.072-.24,0-.288.048-.312.192l-.12.5c-.024.12,0,.192.192.192h.936c.864,0,.96.432.7,1.2Zm6.264-13.344c.288-.024.552-.024.984-.024,2.928,0,3.816,1.656,3.816,2.664a3.861,3.861,0,0,1-2.52,3.552,10.317,10.317,0,0,1-4.416.6ZM209.808.36c5.424,0,8.52-5.136,8.52-9.6,0-4.3-2.688-7.2-6.312-7.2-4.44,0-8.4,4.608-8.4,9.528a7.618,7.618,0,0,0,2.016,5.64A5.56,5.56,0,0,0,209.808.36Zm-.552-.936c-1.776,0-3.816-1.368-3.816-4.776a13.274,13.274,0,0,1,3.5-8.3,4.815,4.815,0,0,1,3.528-1.728c2.664,0,3.984,2.016,3.984,4.584C216.456-5.9,213.192-.576,209.256-.576Zm23.712-4.368a.95.95,0,0,1,1.08-.864h.384c.144,0,.192-.048.216-.192l.072-.456c.024-.168-.048-.24-.216-.24-.336,0-.912.072-2.544.072-1.584,0-2.424-.072-2.784-.072-.192,0-.24.048-.264.192l-.1.456c-.048.168-.024.24.168.24h.888c.792,0,1.176.192.96,1.152l-.48,2.328a1.779,1.779,0,0,1-.432.816,4.726,4.726,0,0,1-3,1.008c-2.208,0-4.44-1.608-4.44-5.4,0-5.256,3.144-9.72,7.488-9.72a3.748,3.748,0,0,1,3.72,4.752.165.165,0,0,0,.144.24l.312.048c.192.024.24,0,.288-.144l1.368-4.824c.024-.12-.048-.168-.144-.192l-.288-.072c-.168-.048-.216,0-.24.1-.144.528-.288.768-.624.768a1.118,1.118,0,0,1-.648-.288,6.354,6.354,0,0,0-3.888-1.2,10.058,10.058,0,0,0-9.816,10.08A6.535,6.535,0,0,0,227.04.36,13.647,13.647,0,0,0,231.7-.72a.663.663,0,0,0,.432-.528Zm3.912,2.928a1.483,1.483,0,0,1-1.488,1.2h-.456c-.168,0-.216.048-.24.192l-.1.5c-.024.12,0,.192.144.192.288,0,1.224-.072,2.64-.072,2.016,0,3.1.072,3.36.072.168,0,.264-.024.288-.144l.072-.552c.024-.12-.024-.192-.168-.192h-.984c-1.008,0-1.32-.36-.888-1.728l1.7-5.256c.912,0,2.256-.12,2.952,1.224.288.576,2.424,5.3,2.76,5.88s.456.768.648.768c.264,0,.72-.072,1.776-.072,1.152,0,1.536.072,1.776.072.168,0,.216-.072.24-.192l.072-.456c.024-.144,0-.24-.168-.24h-.6c-1.032,0-1.512-.408-2.112-1.392-.432-.72-2.088-4.128-2.208-4.368-.264-.5-.624-1.248-1.2-1.44v-.048c2.808-.336,5.4-2.256,5.4-4.656,0-3.264-3.7-3.432-5.424-3.432-.384,0-2.856.072-5.376.072-.24,0-.288.048-.312.192l-.12.5c-.024.12,0,.192.192.192H240c.864,0,.96.432.7,1.2Zm6.264-13.344c.288-.024.552-.024.984-.024,2.928,0,3.816,1.656,3.816,2.664a3.861,3.861,0,0,1-2.52,3.552,10.317,10.317,0,0,1-4.416.6ZM261.5-7.224l-1.2,4.44c-.48,1.8-1.1,1.968-2.016,1.968h-.456c-.12,0-.168.1-.192.192l-.1.456c-.024.144.024.24.24.24.384,0,1.128-.072,2.808-.072,1.632,0,2.592.072,2.88.072.216,0,.264-.072.288-.216l.072-.432c.024-.168-.048-.24-.192-.24h-.648c-.48,0-.888-.288-.888-.672a7.36,7.36,0,0,1,.24-1.392l3.528-13.32c.048-.168-.048-.24-.24-.24a4.16,4.16,0,0,0-.792.192,7.024,7.024,0,0,1-1.128.168c-.456.024-.552.072-.672.24L251.928-2.568a4.106,4.106,0,0,1-2.9,1.752h-.36c-.1,0-.144.048-.168.192l-.12.528c-.024.12.1.168.216.168.264,0,1.1-.072,2.688-.072,1.872,0,2.9.072,3.144.072.168,0,.216-.072.24-.192l.1-.456c.048-.192-.048-.24-.168-.24h-.864c-.528,0-.84-.216-.84-.576A4.294,4.294,0,0,1,253.872-3l3.36-4.224Zm-3.648-.84,5.232-6.5c.192-.216.624-.168.528.168l-1.848,6.336Zm9.24,5.592c-.336.96-.648,1.656-1.944,1.656h-.48c-.12,0-.144.048-.168.192l-.1.5c-.024.12.024.192.144.192.264,0,.984-.072,2.328-.072,1.464,0,2.208.072,2.472.072.192,0,.264-.072.288-.192l.072-.456c.024-.168,0-.24-.168-.24h-.84c-.528,0-1.008-.312-.528-1.7l3.936-11.64c.12-.336.336-.336.384.12L273.864-.528c.048.7.6.7.96.168l9.84-13.9c.168-.24.48-.24.384.144L281.832-2.52c-.288,1.032-.792,1.7-1.992,1.7h-.624c-.192,0-.24.1-.264.24l-.048.408c-.024.168,0,.24.216.24.24,0,1.176-.072,3.12-.072,1.7,0,2.5.072,2.784.072.24,0,.264-.048.288-.192l.1-.5c.024-.12-.024-.192-.168-.192H284.5c-.624,0-.984-.456-.72-1.488l3.1-11.184c.336-1.176.648-1.776,1.224-1.776h.72c.168,0,.216-.048.24-.192l.1-.5c.024-.12-.048-.192-.216-.192-.312,0-1.08.072-3.744.072a.692.692,0,0,0-.624.384L276.1-3.744c-.312.432-.528.432-.6-.192l-1.152-11.592c-.048-.408-.1-.552-.48-.552-3.48,0-4.464-.072-4.7-.072-.168,0-.216.072-.264.24l-.1.408c-.024.144.072.24.288.24h.864c.7,0,1.248.216,1.248.672a2.609,2.609,0,0,1-.168.792Z" transform="translate(1.803 16.896)" fill="#2e2e2e"/>
</svg>
