<svg id="그룹_78" data-name="그룹 78" xmlns="http://www.w3.org/2000/svg" xmlns:xlink="http://www.w3.org/1999/xlink" width="300" height="376.88" viewBox="0 0 300 376.88">
  <defs>
    <clipPath id="clip-path">
      <rect id="사각형_34" data-name="사각형 34" width="300" height="376.88" fill="none" stroke="#fff" stroke-width="1"/>
    </clipPath>
  </defs>
  <g id="그룹_77" data-name="그룹 77" clip-path="url(#clip-path)">
    <path id="패스_91" data-name="패스 91" d="M276.5,367.349h22.874L163.787.125H135.253L.18,367.349H19.973L71.827,220.536h5.994a74.076,74.076,0,0,0-3.8,21.765v21.672H87.682V242.624a58.526,58.526,0,0,1,3.9-22.088H203.474a45.33,45.33,0,0,1,1.912,13.3c0,20.6-31.134,25.621-58.173,28.147-49.59,4.634-82.874,17.605-82.836,60.5.027,33,28.4,52.964,64.446,52.964,28.278,0,53.069-12.741,72.475-37.939h5.939c0,10.756,5.9,37.839,25.919,38.778,7.72.361,15.844,0,15.844,0V362.625h-8.728c-16.552,3.679-20.232-18.442-20.232-33.888V238.255a81.466,81.466,0,0,0-1.821-17.719h7.1Zm-70.14-65.83c0,30.491-39.9,61.285-73.815,61.189-34.32-.1-53.8-13.325-53.6-40.96.26-35.831,24.75-42.157,70.79-47.667,16.332-1.957,42.582-5.011,57.5-17.661Zm-104.622-95.9c10.442-9.8,26.633-14.972,48.414-14.972,21.244,0,35.793,5.783,44.612,14.972Zm110.937,0c-11.243-20.2-34.415-27.686-62.89-27.686-31.4,0-52.657,10.714-64.486,27.686H77.218l39.31-110.995C123.72,73.57,145.8,12.359,145.8,12.359h7.92s21.6,61.726,28.79,82.269L220.44,205.622Z" transform="translate(0.221 0.153)" fill="none" stroke="#fff" stroke-miterlimit="10" stroke-width="1"/>
  </g>
</svg>
