<svg id="그룹_93" data-name="그룹 93" xmlns="http://www.w3.org/2000/svg" xmlns:xlink="http://www.w3.org/1999/xlink" width="120" height="64.153" viewBox="0 0 120 64.153">
  <defs>
    <clipPath id="clip-path">
      <rect id="사각형_47" data-name="사각형 47" width="120" height="64.153" fill="none"/>
    </clipPath>
  </defs>
  <g id="그룹_92" data-name="그룹 92" clip-path="url(#clip-path)">
    <path id="패스_574" data-name="패스 574" d="M30.1,18.411c-12.334,0-18.042,8.691-18.042,19.1,0,3.633.529,9.1,3.3,13.446H29.936c-3.1-.923-5.685-2.869-5.685-6.679,0-6.1,7.9-7.062,8.558-7.062-.645,0-6.533-.871-6.533-6.22s6.607-6.3,10.365-6.3h7.965a19.9,19.9,0,0,0-14.5-6.28" transform="translate(-8.115 -12.389)" fill="#fff"/>
    <path id="패스_575" data-name="패스 575" d="M75.86,39.1l-4.495,0c-1.3,0-5.639.176-5.639,5.815,0,6.179,3.3,5.845,4.782,5.845,3.848,0,6.145-2.544,6.145-5.463h.484V57.022h-.5c0-2.623-1.63-5.782-6.129-5.782-5.765,0-6.845,3.456-6.845,6.951,0,4.078,1.921,6.032,4.5,6.679H79.331V39.1Z" transform="translate(-42.839 -26.306)" fill="#fff"/>
    <path id="패스_576" data-name="패스 576" d="M.784,7.122V23.456C3.933,14.423,13.667,10.33,22.514,10.33c5.69,0,9.925,1.289,13.681,1.289.3,0,.57-.014.823-.033V7.122Z" transform="translate(-0.528 -4.792)" fill="#fff"/>
    <path id="패스_577" data-name="패스 577" d="M.784,104.265H4.553A19.044,19.044,0,0,1,.784,97.639Z" transform="translate(-0.528 -65.701)" fill="#fff"/>
    <path id="패스_578" data-name="패스 578" d="M120.135,0a2.33,2.33,0,1,0,2.329,2.329A2.332,2.332,0,0,0,120.135,0m0,4.316a1.987,1.987,0,1,1,1.986-1.987,1.989,1.989,0,0,1-1.986,1.987" transform="translate(-79.272 -0.001)" fill="#fff"/>
    <path id="패스_579" data-name="패스 579" d="M122.9,5v.982h-.221V3.825h.8c.433,0,.663.234.663.571a.49.49,0,0,1-.388.506c.2.05.352.189.352.559v.088a1.485,1.485,0,0,0,.028.433h-.219a1.466,1.466,0,0,1-.033-.456V5.475c0-.333-.1-.474-.5-.474Zm0-.193h.5c.357,0,.518-.134.518-.4,0-.249-.162-.391-.479-.391H122.9Z" transform="translate(-82.552 -2.574)" fill="#fff"/>
    <path id="패스_580" data-name="패스 580" d="M8.622,167.825v5.05H7.8v-.615h-3.1v3.5H3.874v-3.5H.788v.669H0v-5.1H3.874V165.9h.831v1.921Zm-4.748.788H.788v2.859H3.874Zm3.928,0h-3.1v2.859H7.8Z" transform="translate(0 -111.637)" fill="#fff"/>
    <path id="패스_581" data-name="패스 581" d="M48.1,167.423v9.367h-.831v-.54h-7.22v.54h-.8v-9.367Zm-.831.744H40.05v7.339h7.219Zm-.626,5.665v.68H40.762v-.68h2.482V172.02H41.215v-.691h2.029V169.8H40.913v-.723h5.514v.723H44v1.532h2.159v.691H44v1.813Zm-1.457-1.618a6.725,6.725,0,0,1,1.09,1.177l-.551.324a7.815,7.815,0,0,0-1.046-1.22Z" transform="translate(-26.412 -112.659)" fill="#fff"/>
    <path id="패스_582" data-name="패스 582" d="M82.992,172.809c.777,1.2,2.191,1.878,4.155,2.115a3.147,3.147,0,0,0-.486.744c-2.18-.356-3.637-1.219-4.468-2.774-.539,1.414-1.694,2.3-4.457,2.774a2.755,2.755,0,0,0-.421-.723c2.482-.356,3.54-1.036,4.025-2.137H77.758v-.723h3.82a6.353,6.353,0,0,0,.141-.831H77.487v-.712h4.328v-.906H78.459v-.7h3.356v-.874H77.93v-.723h2.213a5.989,5.989,0,0,0-.831-1.251l.691-.281a5.3,5.3,0,0,1,.95,1.36l-.389.172H83.4a12.077,12.077,0,0,0,.928-1.532l.82.249a14.763,14.763,0,0,1-.863,1.284h2.266v.723H82.614v.874h3.453v.7H82.614v.906h4.435v.712h-4.5c-.032.291-.076.572-.13.831h4.5v.723Z" transform="translate(-52.025 -111.57)" fill="#fff"/>
    <path id="패스_583" data-name="패스 583" d="M122.4,169.235c-.064.086-.129.183-.2.281a11.109,11.109,0,0,0,4.468,2.9,2.915,2.915,0,0,0-.518.68,14.988,14.988,0,0,1-1.381-.691v3.173h-.81v-.324h-4.425v.367h-.777v-3.1a10.443,10.443,0,0,1-1.446.7,3.916,3.916,0,0,0-.507-.647,10.187,10.187,0,0,0,4.9-3.659Zm-4.338-.54h-.777v-1.953h4.187a8.244,8.244,0,0,0-.432-.874l.82-.194a8.364,8.364,0,0,1,.551,1.068h3.809V168.7h-.81v-1.219H118.06Zm2.633-.464a9.78,9.78,0,0,1-2.784,2.385,4.838,4.838,0,0,0-.561-.6,8.243,8.243,0,0,0,2.6-2.029Zm3.259,4.5h-4.425v1.8h4.425Zm.14-.723a11.147,11.147,0,0,1-2.32-1.932,11.433,11.433,0,0,1-2.191,1.932Zm-.885-4.014a15.885,15.885,0,0,1,2.817,2.072l-.561.529a16.422,16.422,0,0,0-2.784-2.148Z" transform="translate(-78.593 -111.482)" fill="#fff"/>
    <path id="패스_584" data-name="패스 584" d="M158.581,169.52v6.259H157.8V169.52h-1.327v-.745H157.8v-2.838h.777v2.838h1.166v.745Zm7.738,3.723H164.8v1.694c0,.41-.086.6-.378.712a5.573,5.573,0,0,1-1.543.108,2.553,2.553,0,0,0-.238-.658c.572.011,1.069.011,1.209,0,.162,0,.195-.043.195-.173v-1.684h-4.619v-.69h4.619v-.6h.755v.6h1.522ZM162.6,167.75h-2.914v-.658H162.6v-1.155h.734v1.155h1.921c-.378-.2-.928-.475-1.349-.69l.324-.464c.485.216,1.155.529,1.521.713l-.28.442h.766v.658h-2.9v.6h2.385v3.6h-.723v-.691H163.33v.658H162.6v-.658h-1.673v.766h-.7v-3.68H162.6Zm-1.63,5.579c.5.378,1.2.918,1.554,1.241l-.486.539a17.25,17.25,0,0,0-1.532-1.317Zm-.043-3.767H162.6v-.626h-1.673Zm1.673.54h-1.673v.626H162.6Zm.734-.54h1.662v-.626H163.33Zm1.662.54h-1.662v.626h1.662Z" transform="translate(-105.293 -111.659)" fill="#fff"/>
    <path id="패스_585" data-name="패스 585" d="M204.987,174.926c.41,0,.5-.14.529-1.111a2.757,2.757,0,0,0,.712.291c-.1,1.209-.335,1.5-1.177,1.5h-1.878c-1.047,0-1.317-.205-1.317-.971V172.94c-.237.982-1.176,2.072-4.436,2.849a2.794,2.794,0,0,0-.507-.648c3.907-.831,4.187-2.039,4.187-2.9v-.831h.82v.853a3.047,3.047,0,0,1-.075.68h.809v1.684c0,.258.086.3.594.3Zm-6.777-5.4h-.777v-3.022h.777Zm.874,4.09H198.3v-3.41h6.659v3.346h-.82v-2.633h-5.051Zm1.371-3.734h-.788v-3.874h.788Zm2.234-2.159a7.952,7.952,0,0,1-.971,1.792,5.175,5.175,0,0,0-.68-.41,8.346,8.346,0,0,0,1.435-3.205l.777.151c-.086.313-.184.648-.291.95h3.248v.723Zm1.09.194a8.226,8.226,0,0,1,1.446,1.673l-.712.356A7.921,7.921,0,0,0,203.1,168.2Z" transform="translate(-132.504 -111.637)" fill="#fff"/>
    <path id="패스_586" data-name="패스 586" d="M241.413,166.273c-.108.14-.216.291-.313.431a12.455,12.455,0,0,0,4.468,2.785,3.329,3.329,0,0,0-.561.712,14.063,14.063,0,0,1-4.37-2.957,12.215,12.215,0,0,1-2.428,2.018h4.986v.745h-5.126v-.658a13.985,13.985,0,0,1-1.781.961,3.461,3.461,0,0,0-.583-.68,11.49,11.49,0,0,0,4.943-3.691Zm-5.2,5.05h8.86v.777h-4.705a17.279,17.279,0,0,1-2.2,2.45l4.9-.367a15.9,15.9,0,0,0-1.252-1.295l.68-.367a14.022,14.022,0,0,1,2.45,2.817l-.712.442a9.089,9.089,0,0,0-.594-.884c-5.7.464-6.3.507-6.7.658-.054-.173-.183-.594-.27-.831a1.9,1.9,0,0,0,.8-.561,14.052,14.052,0,0,0,1.813-2.061h-3.065Z" transform="translate(-158.605 -111.66)" fill="#fff"/>
    <path id="패스_587" data-name="패스 587" d="M257.132,34.364a10.271,10.271,0,0,0-3.466-7.647l-.279-.249.241-.286a9.067,9.067,0,0,0,2.151-5.822,9.235,9.235,0,0,0-9.339-9.1H236.33V44.787h10.108a10.572,10.572,0,0,0,10.693-10.422M242.27,16.737h4.168a3.469,3.469,0,0,1,3.178,3.623,3.469,3.469,0,0,1-3.178,3.623H242.27Zm0,22.568V29.464h4.083a4.931,4.931,0,0,1,0,9.841Z" transform="translate(-159.026 -7.574)" fill="#fff"/>
    <path id="패스_588" data-name="패스 588" d="M327.717,29.464V23.983h-12.56V16.737h12.914V11.256H309.216v33.53h18.855V39.305H315.157V29.464Z" transform="translate(-208.071 -7.574)" fill="#fff"/>
    <path id="패스_589" data-name="패스 589" d="M153.783,37.372a14.32,14.32,0,0,1-5.549,1.051,14,14,0,0,1-6.472-1.5,11.128,11.128,0,0,1-4.521-4.144,11.477,11.477,0,0,1-1.6-6.038,10.788,10.788,0,0,1,3.61-8.219,12.629,12.629,0,0,1,8.859-3.327,15.146,15.146,0,0,1,2.7.24,15.4,15.4,0,0,1,6.538,2.943l3.814-4.7a20.761,20.761,0,0,0-4.407-2.529A21.842,21.842,0,0,0,148.22,9.42a20.918,20.918,0,0,0-9.729,2.342,17.508,17.508,0,0,0-6.929,6.182,16.211,16.211,0,0,0-2.416,8.784,16.336,16.336,0,0,0,5.308,12.53c3.526,3.247,8.125,4.893,13.668,4.893a22.057,22.057,0,0,0,8.064-1.385,21.156,21.156,0,0,0,4.635-2.634l-3.423-4.96a16.345,16.345,0,0,1-3.615,2.2" transform="translate(-86.902 -6.339)" fill="#fff"/>
    <path id="패스_590" data-name="패스 590" d="M7.37,135.424l.56.487a3.952,3.952,0,0,1-1.384.916,4.44,4.44,0,0,1-1.647.312,4.2,4.2,0,0,1-1.647-.323,4.319,4.319,0,0,1-1.34-.873,4.142,4.142,0,0,1-.906-1.292,3.92,3.92,0,0,1,0-3.171,4.131,4.131,0,0,1,.906-1.3,4.329,4.329,0,0,1,1.34-.873,4.208,4.208,0,0,1,1.647-.323,4.5,4.5,0,0,1,1.631.307,3.884,3.884,0,0,1,1.389.91l-.549.5a3.564,3.564,0,0,0-1.219-.757,3.8,3.8,0,0,0-1.252-.217,3.445,3.445,0,0,0-1.345.265,3.534,3.534,0,0,0-1.1.715,3.391,3.391,0,0,0-.741,1.059,3.2,3.2,0,0,0,0,2.594,3.389,3.389,0,0,0,.741,1.059,3.527,3.527,0,0,0,1.1.714A3.44,3.44,0,0,0,4.9,136.4a3.653,3.653,0,0,0,1.235-.217,3.956,3.956,0,0,0,1.235-.757" transform="translate(-0.452 -86.795)" fill="#fff"/>
    <path id="패스_591" data-name="패스 591" d="M34.391,129.311h.769v7.94h-.769v-3.6H30.075v3.6h-.769v-7.94h.769v3.6h4.316Z" transform="translate(-19.72 -87.013)" fill="#fff"/>
    <rect id="사각형_46" data-name="사각형 46" width="0.769" height="7.94" transform="translate(17.767 42.298)" fill="#fff"/>
    <path id="패스_592" data-name="패스 592" d="M64.12,129.311H64.3l5.205,6.109v-6.109h.769v7.94h-.2l-5.183-6.077v6.077H64.12Z" transform="translate(-43.146 -87.013)" fill="#fff"/>
    <path id="패스_593" data-name="패스 593" d="M92.311,129.311h.219l3.942,7.94h-.845l-1.241-2.488H90.444l-1.23,2.488h-.856Zm.11,1.493-1.6,3.218h3.2Z" transform="translate(-59.456 -87.013)" fill="#fff"/>
    <path id="패스_594" data-name="패스 594" d="M135.685,133.207a1.463,1.463,0,0,1,.472.307,2.106,2.106,0,0,1,.357.455,2.231,2.231,0,0,1,.225.535,2.068,2.068,0,0,1,.077.545,2.03,2.03,0,0,1-.181.852,2.277,2.277,0,0,1-.494.7,2.361,2.361,0,0,1-.725.477,2.239,2.239,0,0,1-.884.175h-2.767v-7.94h2.547a2.241,2.241,0,0,1,.884.175,2.371,2.371,0,0,1,.725.476,2.279,2.279,0,0,1,.494.7,2.032,2.032,0,0,1,.181.852,2.3,2.3,0,0,1-.055.487,2.088,2.088,0,0,1-.17.487,1.886,1.886,0,0,1-.286.423,1.207,1.207,0,0,1-.4.3m-3.152-3.155v2.784h2.02a1.185,1.185,0,0,0,.95-.376,1.4,1.4,0,0,0,.324-.948,1.371,1.371,0,0,0-.121-.566,1.483,1.483,0,0,0-.324-.466,1.542,1.542,0,0,0-.483-.312,1.51,1.51,0,0,0-.587-.116Zm0,6.458h2a1.512,1.512,0,0,0,.587-.116,1.532,1.532,0,0,0,.483-.312,1.492,1.492,0,0,0,.324-.461,1.355,1.355,0,0,0,.121-.571,1.392,1.392,0,0,0-.115-.561,1.49,1.49,0,0,0-.318-.466,1.589,1.589,0,0,0-.478-.323,1.424,1.424,0,0,0-.582-.122h-2.02Z" transform="translate(-88.665 -87.013)" fill="#fff"/>
    <path id="패스_595" data-name="패스 595" d="M157.176,130.052h-3.393v2.859h2.965v.741h-2.965v2.858h3.393v.741h-4.195v-7.94h4.195Z" transform="translate(-102.941 -87.013)" fill="#fff"/>
    <path id="패스_596" data-name="패스 596" d="M174.526,129.311h.219l3.942,7.94h-.845l-1.241-2.488h-3.942l-1.23,2.488h-.856Zm.11,1.493-1.6,3.218h3.2Z" transform="translate(-114.778 -87.013)" fill="#fff"/>
    <path id="패스_597" data-name="패스 597" d="M203.287,137.357a2.767,2.767,0,0,1-1.861-.7,2.488,2.488,0,0,1-.566-.741,1.95,1.95,0,0,1-.209-.884v-5.717h.769v5.717a1.354,1.354,0,0,0,.137.593,1.633,1.633,0,0,0,.384.508,1.9,1.9,0,0,0,.587.355,2.074,2.074,0,0,0,.758.132,2.118,2.118,0,0,0,.763-.132,1.875,1.875,0,0,0,.593-.355,1.552,1.552,0,0,0,.379-.508,1.4,1.4,0,0,0,.132-.593v-5.717h.769v5.717a2,2,0,0,1-.2.884,2.416,2.416,0,0,1-.56.741,2.733,2.733,0,0,1-.84.513,2.782,2.782,0,0,1-1.032.191" transform="translate(-135.019 -87.013)" fill="#fff"/>
    <path id="패스_598" data-name="패스 598" d="M227.121,129.311v.741h-2.152v7.2H224.2v-7.2h-2.163v-.741Z" transform="translate(-149.408 -87.013)" fill="#fff"/>
    <path id="패스_599" data-name="패스 599" d="M247.34,129.311l-2.789,4.066v3.875h-.769v-3.875L241,129.311h.922l2.24,3.282,2.251-3.282Z" transform="translate(-162.171 -87.013)" fill="#fff"/>
    <path id="패스_600" data-name="패스 600" d="M283.167,130.052h-3.393v2.859h2.965v.741h-2.965v2.858h3.393v.741h-4.195v-7.94h4.195Z" transform="translate(-187.72 -87.013)" fill="#fff"/>
    <path id="패스_601" data-name="패스 601" d="M296.563,137.251l2.734-3.991-2.7-3.949h.922l2.24,3.282,2.251-3.282h.911l-2.7,3.949,2.734,3.991h-.922l-2.273-3.324-2.273,3.324Z" transform="translate(-199.557 -87.013)" fill="#fff"/>
    <path id="패스_602" data-name="패스 602" d="M322.308,133.726v3.525h-.769v-7.94h2.471a2.282,2.282,0,0,1,.89.175,2.349,2.349,0,0,1,.73.477,2.26,2.26,0,0,1,.494.7,2.12,2.12,0,0,1,0,1.715,2.193,2.193,0,0,1-.494.7,2.4,2.4,0,0,1-.73.471,2.282,2.282,0,0,1-.89.175Zm0-3.674v2.933h1.7a1.566,1.566,0,0,0,1.082-.429,1.5,1.5,0,0,0,.324-.461,1.355,1.355,0,0,0,.121-.572,1.391,1.391,0,0,0-.121-.577,1.477,1.477,0,0,0-.324-.466,1.562,1.562,0,0,0-1.082-.429Z" transform="translate(-216.363 -87.013)" fill="#fff"/>
    <path id="패스_603" data-name="패스 603" d="M345.125,137.139a4.272,4.272,0,0,1-1.647-.318,4.339,4.339,0,0,1-1.351-.873,4.121,4.121,0,0,1-.917-1.3,3.919,3.919,0,0,1,0-3.171,4.035,4.035,0,0,1,.917-1.3,4.466,4.466,0,0,1,1.351-.874,4.349,4.349,0,0,1,3.289,0,4.449,4.449,0,0,1,1.356.874,4.046,4.046,0,0,1,.917,1.3,3.919,3.919,0,0,1,0,3.171,4.131,4.131,0,0,1-.917,1.3,4.338,4.338,0,0,1-3,1.191m0-7.411a3.486,3.486,0,0,0-1.351.265,3.586,3.586,0,0,0-1.109.715,3.346,3.346,0,0,0-.747,1.059,3.2,3.2,0,0,0,0,2.594,3.36,3.36,0,0,0,.752,1.064,3.568,3.568,0,0,0,4.908,0,3.359,3.359,0,0,0,.752-1.064,3.2,3.2,0,0,0,0-2.594,3.305,3.305,0,0,0-.752-1.059,3.679,3.679,0,0,0-1.109-.715,3.448,3.448,0,0,0-1.345-.265" transform="translate(-229.374 -86.795)" fill="#fff"/>
  </g>
</svg>
