<svg xmlns="http://www.w3.org/2000/svg" xmlns:xlink="http://www.w3.org/1999/xlink" width="325.932" height="36.225" viewBox="0 0 325.932 36.225">
  <defs>
    <clipPath id="clip-path">
      <rect id="사각형_13" data-name="사각형 13" width="30" height="36.225" fill="#adb4b7"/>
    </clipPath>
  </defs>
  <g id="그룹_162" data-name="그룹 162" transform="translate(-24.264 -5251)">
    <g id="그룹_158" data-name="그룹 158" transform="translate(172.5 5251)">
      <g id="그룹_11" data-name="그룹 11" clip-path="url(#clip-path)">
        <path id="패스_28" data-name="패스 28" d="M28.463,22.255c-.138.83-2.488,10.373-11.681,10.373a10.132,10.132,0,0,1-6.194-1.908,11.465,11.465,0,0,0,2.082.186c8.168,0,10.333-8.862,10.431-9.355l-.984-.492c-.1.591-1.771,7.385-8.315,7.385-5.364,0-7.923-4.48-7.923-10.339,0-4.248,1.013-7.629,2.871-9.614,3.252-2.6,5.2-.328,5.2,1.7,0,1.616-.939,6.878,4.019,6.878,3.718,0,4.1-3.476,4.144-4.27,0-.014,0-.027,0-.041,0-.077,0-.12,0-.12,0-2.708-2.46-7.336-9.349-7.336A9.738,9.738,0,0,0,8.351,6.365a8.735,8.735,0,0,1,7.671-4.512c4.147,0,5.322,2.42,5.874,5.187.553,2.627-.207,6.223,3.8,6.223a2.614,2.614,0,0,0,2.765-2.836c0-3.8-3.456-10.3-13.132-10.3C7.451.125.125,6.9.125,18.8c0,9.682,5.668,17.289,15.068,17.289,11.473,0,14.513-12.448,14.652-13.14Z" transform="translate(0.007 0.007)" fill="#adb4b7"/>
      </g>
    </g>
    <path id="패스_1008" data-name="패스 1008" d="M-70.116.168a3.556,3.556,0,0,0,2.568-.9,3.648,3.648,0,0,0,1.032-2.412h-1.068A2.378,2.378,0,0,1-70.08-.78c-1.788,0-2.952-1.416-2.952-3.516,0-2.016,1.056-3.54,2.94-3.54a2.237,2.237,0,0,1,2.412,1.8h1.056a3.18,3.18,0,0,0-3.444-2.736c-2.556,0-4.068,1.956-4.068,4.476C-74.136-1.692-72.552.168-70.116.168Zm8.148,0a3.556,3.556,0,0,0,2.568-.9,3.648,3.648,0,0,0,1.032-2.412h-1.068a2.378,2.378,0,0,1-2.5,2.364C-63.72-.78-64.884-2.2-64.884-4.3c0-2.016,1.056-3.54,2.94-3.54a2.237,2.237,0,0,1,2.412,1.8h1.056A3.18,3.18,0,0,0-61.92-8.772c-2.556,0-4.068,1.956-4.068,4.476C-65.988-1.692-64.4.168-61.968.168Zm6-.168h1.08V-3.6h2.34c1.872,0,2.772-.948,2.772-2.52a2.478,2.478,0,0,0-.576-1.632,2.556,2.556,0,0,0-2.04-.828h-3.576Zm1.08-7.644h2.316c1.092,0,1.728.54,1.728,1.572,0,.984-.576,1.6-1.788,1.6h-2.256ZM-49.092,0h1.08V-3.624h2.388c1.152,0,1.656.444,1.74,1.7.1,1.44.132,1.764.312,1.92h1.164V-.048c-.156-.108-.3-.456-.4-1.836-.084-1.272-.36-1.872-1.236-2.184V-4.1a2.026,2.026,0,0,0,1.488-2.124A2.319,2.319,0,0,0-45.084-8.58h-4.008Zm1.08-7.644h2.6c1.26,0,1.74.528,1.74,1.572,0,.972-.6,1.572-1.8,1.572h-2.544ZM-37.728.18c2.592,0,4.2-1.908,4.2-4.476s-1.608-4.476-4.2-4.476-4.2,1.908-4.2,4.476S-40.32.18-37.728.18Zm0-.948c-2.016,0-3.1-1.512-3.1-3.528s1.08-3.54,3.1-3.54,3.1,1.524,3.1,3.54S-35.712-.768-37.728-.768ZM-25.884,0h.7V-4.536h-3.66V-3.6h2.58v.2A2.435,2.435,0,0,1-28.86-.756c-1.74,0-2.964-1.4-2.964-3.5,0-2.016.936-3.564,3-3.564A2.207,2.207,0,0,1-26.424-6h1.116A3.214,3.214,0,0,0-28.8-8.76c-2.7,0-4.128,1.98-4.128,4.5,0,2.6,1.62,4.44,4.032,4.44A3.121,3.121,0,0,0-26.22-1.128h.024Zm1.824,0h1.08V-3.624h2.388c1.152,0,1.656.444,1.74,1.7.1,1.44.132,1.764.312,1.92h1.164V-.048c-.156-.108-.3-.456-.4-1.836-.084-1.272-.36-1.872-1.236-2.184V-4.1A2.026,2.026,0,0,0-17.52-6.228,2.319,2.319,0,0,0-20.052-8.58H-24.06Zm1.08-7.644h2.6c1.26,0,1.74.528,1.74,1.572,0,.972-.6,1.572-1.8,1.572H-22.98ZM-17.256,0h1.1l.924-2.616h3.42L-10.9,0H-9.72l-3.168-8.58H-14.1Zm3.36-6.372c.168-.492.4-1.212.4-1.212h.024s.216.732.384,1.212l.984,2.88h-2.808ZM-9.156,0h.972V-7.056h.024s.216.648.384,1.08L-5.424,0H-4.6l2.352-5.976c.156-.408.384-1.08.384-1.08h.024V0H-.8V-8.58h-1.4l-2.76,7.128h-.024L-7.776-8.58h-1.38Z" transform="translate(351 5273)" fill="#adb4b7"/>
    <path id="패스_1007" data-name="패스 1007" d="M3.924.168c1.848,0,3.156-.9,3.156-2.508,0-1.932-1.524-2.34-3.192-2.676C2.6-5.268,1.644-5.556,1.644-6.528c0-.888.768-1.38,1.932-1.38A1.977,1.977,0,0,1,5.784-6.072H6.8C6.588-7.656,5.7-8.748,3.552-8.748,1.812-8.748.636-7.9.636-6.48c0,1.62,1.3,2.052,2.808,2.388C4.98-3.756,6.012-3.48,6.012-2.3,6.012-1.236,5.16-.7,3.972-.7,2.352-.7,1.464-1.452,1.32-2.9H.264C.36-1.176,1.512.168,3.924.168ZM7.956,0h1.08V-4.056H13.62V0H14.7V-8.58H13.62v3.648H9.036V-8.58H7.956Zm7.308,0h1.1l.924-2.616h3.42L21.624,0H22.8L19.632-8.58H18.42Zm3.36-6.372c.168-.492.4-1.212.4-1.212h.024s.216.732.384,1.212l.984,2.88H17.6ZM23.364,0h1.008V-7.044H24.4s.36.648.636,1.068L28.968,0h1.1V-8.58H29.064v7.068H29.04s-.336-.66-.624-1.1L24.5-8.58h-1.14ZM38.04,0h.7V-4.536h-3.66V-3.6h2.58v.2a2.435,2.435,0,0,1-2.592,2.64c-1.74,0-2.964-1.4-2.964-3.5,0-2.016.936-3.564,3-3.564A2.207,2.207,0,0,1,37.5-6h1.116a3.214,3.214,0,0,0-3.492-2.76C32.424-8.76,31-6.78,31-4.26c0,2.6,1.62,4.44,4.032,4.44A3.121,3.121,0,0,0,37.7-1.128h.024Zm1.824,0h1.08V-3.6h2.34c1.872,0,2.772-.948,2.772-2.52a2.478,2.478,0,0,0-.576-1.632,2.556,2.556,0,0,0-2.04-.828H39.864Zm1.08-7.644H43.26c1.092,0,1.728.54,1.728,1.572,0,.984-.576,1.6-1.788,1.6H40.944ZM46.74,0h1.08V-3.624h2.388c1.152,0,1.656.444,1.74,1.7.1,1.44.132,1.764.312,1.92h1.164V-.048c-.156-.108-.3-.456-.4-1.836-.084-1.272-.36-1.872-1.236-2.184V-4.1A2.026,2.026,0,0,0,53.28-6.228,2.319,2.319,0,0,0,50.748-8.58H46.74Zm1.08-7.644h2.6c1.26,0,1.74.528,1.74,1.572,0,.972-.6,1.572-1.8,1.572H47.82ZM54.228,0h6.2V-1H55.308V-4.008h4.524V-4.92H55.308V-7.632h4.98V-8.58h-6.06Zm7.1,0h6.2V-1H62.412V-4.008h4.524V-4.92H62.412V-7.632h4.98V-8.58h-6.06Z" transform="translate(24 5273)" fill="#adb4b7"/>
  </g>
</svg>
