<svg id="그룹_12" data-name="그룹 12" xmlns="http://www.w3.org/2000/svg" xmlns:xlink="http://www.w3.org/1999/xlink" width="300" height="362.245" viewBox="0 0 300 362.245">
  <defs>
    <clipPath id="clip-path">
      <rect id="사각형_13" data-name="사각형 13" width="300" height="362.245" fill="none" stroke="#fff" stroke-width="1"/>
    </clipPath>
  </defs>
  <g id="그룹_11" data-name="그룹 11" clip-path="url(#clip-path)">
    <path id="패스_28" data-name="패스 28" d="M283.5,221.424c-1.378,8.3-24.883,103.732-116.81,103.732-24.915,0-45.516-6.881-61.94-19.076a114.649,114.649,0,0,0,20.822,1.862c81.678,0,103.332-88.623,104.31-93.547l-9.838-4.924c-.979,5.913-17.708,73.851-83.152,73.851-53.639,0-79.227-44.8-79.227-103.395,0-42.475,10.132-76.292,28.713-96.135,32.522-26.041,51.987-3.283,51.987,17.013,0,16.161-9.385,68.779,40.192,68.779,37.183,0,41.044-34.763,41.444-42.7,0-.137.011-.274.021-.41.021-.768.021-1.2.021-1.2,0-27.082-24.6-73.356-93.494-73.356A97.382,97.382,0,0,0,82.382,62.528c17.718-28.7,43.717-45.116,76.712-45.116,41.465,0,53.218,24.2,58.742,51.871,5.534,26.272-2.073,62.235,38.014,62.235,12.447,0,27.651-6.913,27.651-28.355C283.5,65.127,248.938.125,152.182.125,73.386.125.125,67.894.125,186.85.125,283.669,56.8,359.74,150.8,359.74c114.727,0,145.134-124.48,146.523-131.4Z" transform="translate(1.19 1.19)" fill="none" stroke="#fff" stroke-miterlimit="10" stroke-width="1"/>
  </g>
</svg>
