<svg xmlns="http://www.w3.org/2000/svg" xmlns:xlink="http://www.w3.org/1999/xlink" width="327.001" height="98.671" viewBox="0 0 327.001 98.671">
  <defs>
    <clipPath id="clip-path">
      <rect id="사각형_12" data-name="사각형 12" width="327.001" height="98.671" fill="#2e2e2e"/>
    </clipPath>
  </defs>
  <g id="그룹_18" data-name="그룹 18" transform="translate(-642)">
    <g id="그룹_9" data-name="그룹 9" transform="translate(642)" clip-path="url(#clip-path)">
      <path id="패스_14" data-name="패스 14" d="M0,49.336C0,21.557,4.273,0,11.5,0c5.66,0,9.089,12.7,9.73,30.157H18.243c-.574-11.772-2.984-19.839-6.818-19.839-5.32,0-8.306,16.8-8.306,39.018,0,23.147,3.291,38.754,8.34,38.754,4.58,0,6.751-12.168,7.054-26.056h3.018C21.5,71.423,20.346,82,18.614,88.619c-1.694,6.481-4.169,9.92-7.257,9.92C4.476,98.539,0,78.038,0,49.336" fill="#2e2e2e"/>
      <path id="패스_15" data-name="패스 15" d="M59.1,49.336c0-22.223-3.054-39.018-8.748-39.018S41.6,27.113,41.6,49.336s3.054,38.885,8.752,38.885S59.1,71.555,59.1,49.336m-20.619,0C38.481,21.031,43.024,0,50.352,0S62.219,21.031,62.219,49.336,57.676,98.671,50.352,98.671,38.481,77.64,38.481,49.336" transform="translate(-15.121)" fill="#2e2e2e"/>
      <path id="패스_16" data-name="패스 16" d="M82.439,3.486h3.223L96.716,69.222c.817,4.894,1.765,12.168,1.765,12.168h.067V3.486H101.4v94.57H98.276L87.154,32.189c-.779-4.631-1.8-11.773-1.8-11.773h-.067v77.64H82.439Z" transform="translate(-32.395 -1.37)" fill="#2e2e2e"/>
      <path id="패스_17" data-name="패스 17" d="M118.524,49.336C118.524,21.557,122.8,0,130.02,0c5.663,0,9.089,12.7,9.734,30.157h-2.984c-.577-11.772-2.984-19.839-6.818-19.839-5.323,0-8.309,16.8-8.309,39.018,0,23.147,3.291,38.754,8.343,38.754,4.577,0,6.75-12.168,7.054-26.056h3.017c-.033,9.39-1.188,19.971-2.916,26.586-1.694,6.481-4.172,9.92-7.257,9.92-6.885,0-11.361-20.5-11.361-49.2" transform="translate(-46.575)" fill="#2e2e2e"/>
      <path id="패스_18" data-name="패스 18" d="M158.517,3.486h17.126v10.45H161.572V43.827h12.782V53.878H161.572v33.2h14.48V98.056H158.517Z" transform="translate(-62.29 -1.37)" fill="#2e2e2e"/>
      <path id="패스_19" data-name="패스 19" d="M192.139,3.486h3.223l11.054,65.736c.817,4.894,1.765,12.168,1.765,12.168h.067V3.486H211.1v94.57h-3.122L196.854,32.189c-.779-4.631-1.8-11.773-1.8-11.773h-.067v77.64h-2.849Z" transform="translate(-75.502 -1.37)" fill="#2e2e2e"/>
      <path id="패스_20" data-name="패스 20" d="M227.223,3.486h19.192v10.45h-8.071v84.12H235.29V13.936h-8.067Z" transform="translate(-89.288 -1.37)" fill="#2e2e2e"/>
      <path id="패스_21" data-name="패스 21" d="M265.74,48.457h7.189c3.392,0,5.086-6.615,5.086-17.328,0-11.506-1.357-17.325-4.918-17.325H265.74ZM262.685,3.486h11.327c4.273,0,7.155,10.45,7.155,25.925,0,11.506-1.289,19.708-4.206,23.41v.4c2.477,3.44,3.257,10.054,3.494,24.075.273,15.209.678,19.046,1.117,20.234v.53h-3.287c-.506-1.718-.608-5.289-.881-21.162C277.165,63,275.74,58.11,272.486,58.11H265.74V98.056h-3.055Z" transform="translate(-103.223 -1.37)" fill="#2e2e2e"/>
      <rect id="사각형_10" data-name="사각형 10" width="3.051" height="94.57" transform="translate(181.029 2.116)" fill="#2e2e2e"/>
      <rect id="사각형_11" data-name="사각형 11" width="3.055" height="94.57" transform="translate(239.515 2.116)" fill="#2e2e2e"/>
      <path id="패스_22" data-name="패스 22" d="M479.967,3.486h3.055V87.077h12.714V98.056H479.967Z" transform="translate(-188.605 -1.37)" fill="#2e2e2e"/>
      <path id="패스_23" data-name="패스 23" d="M509.8,3.486h17.126v10.45H512.848V43.827h12.786V53.878H512.848v33.2h14.48V98.056H509.8Z" transform="translate(-200.327 -1.37)" fill="#2e2e2e"/>
      <path id="패스_24" data-name="패스 24" d="M308.211,49.336c0-27.778,4.273-49.336,11.5-49.336,5.663,0,9.086,12.7,9.73,30.157h-2.984c-.577-11.772-2.984-19.839-6.815-19.839-5.326,0-8.309,16.8-8.309,39.018,0,23.147,3.287,38.754,8.343,38.754,4.576,0,6.747-12.168,7.055-26.056h3.017c-.033,9.39-1.188,19.971-2.916,26.586-1.694,6.481-4.172,9.92-7.257,9.92-6.885,0-11.361-20.5-11.361-49.2" transform="translate(-121.113)" fill="#2e2e2e"/>
      <path id="패스_25" data-name="패스 25" d="M354.46,49.336C354.46,21.557,358.733,0,365.956,0c5.663,0,9.086,12.7,9.73,30.157H372.7c-.577-11.772-2.984-19.839-6.815-19.839-5.326,0-8.309,16.8-8.309,39.018,0,23.147,3.287,38.754,8.343,38.754,4.577,0,6.747-12.168,7.055-26.056h3.017c-.033,9.39-1.188,19.971-2.916,26.586-1.694,6.481-4.172,9.92-7.256,9.92-6.885,0-11.361-20.5-11.361-49.2" transform="translate(-139.287)" fill="#2e2e2e"/>
      <path id="패스_26" data-name="패스 26" d="M409.119,48.457h7.189c3.392,0,5.09-6.615,5.09-17.328,0-11.506-1.357-17.325-4.921-17.325h-7.358ZM406.068,3.486H417.4c4.273,0,7.155,10.45,7.155,25.925,0,11.506-1.289,19.708-4.206,23.41v.4c2.477,3.44,3.254,10.054,3.49,24.075.274,15.209.682,19.046,1.121,20.234v.53h-3.287c-.51-1.718-.611-5.289-.884-21.162C420.548,63,419.123,58.11,415.869,58.11h-6.75V98.056h-3.051Z" transform="translate(-159.566 -1.37)" fill="#2e2e2e"/>
      <path id="패스_27" data-name="패스 27" d="M439.973,49.336c0-27.778,4.273-49.336,11.5-49.336,5.663,0,9.086,12.7,9.73,30.157h-2.984c-.577-11.772-2.984-19.839-6.815-19.839-5.326,0-8.309,16.8-8.309,39.018,0,23.147,3.287,38.754,8.343,38.754,4.577,0,6.747-12.168,7.054-26.056h3.017c-.033,9.39-1.188,19.971-2.916,26.586-1.694,6.481-4.172,9.92-7.257,9.92-6.885,0-11.361-20.5-11.361-49.2" transform="translate(-172.89)" fill="#2e2e2e"/>
    </g>
  </g>
</svg>
