<svg xmlns="http://www.w3.org/2000/svg" xmlns:xlink="http://www.w3.org/1999/xlink" width="327" height="50" viewBox="0 0 327 50">
  <defs>
    <clipPath id="clip-path">
      <rect id="사각형_57" data-name="사각형 57" width="147.148" height="50" fill="#2e2e2e"/>
    </clipPath>
    <clipPath id="clip-path-2">
      <rect id="사각형_60" data-name="사각형 60" width="41.184" height="50" fill="#2e2e2e"/>
    </clipPath>
  </defs>
  <g id="그룹_161" data-name="그룹 161" transform="translate(-24 -4011)">
    <g id="그룹_133" data-name="그룹 133" transform="translate(203.852 4011)">
      <rect id="사각형_56" data-name="사각형 56" width="1.55" height="47.986" transform="translate(37.031 1.075)" fill="#2e2e2e"/>
      <path id="패스_975" data-name="패스 975" d="M65.562,1.736h1.548V44.152h6.456v5.57h-8Z" transform="translate(-24.986 -0.661)" fill="#2e2e2e"/>
      <path id="패스_976" data-name="패스 976" d="M80.409,1.736h1.549V25.561L88.019,1.736h1.945L84.988,20.93l5.389,28.791H88.569l-4.631-24.7-1.98,7.718v16.98H80.409Z" transform="translate(-30.644 -0.661)" fill="#2e2e2e"/>
      <path id="패스_977" data-name="패스 977" d="M100.631,29.387,96.172,1.736h1.722l3.529,22.819h.035l3.581-22.819h1.652l-4.511,27.785v20.2h-1.55Z" transform="translate(-36.651 -0.661)" fill="#2e2e2e"/>
      <path id="패스_978" data-name="패스 978" d="M118.61,1.736H127.3v5.3h-7.145V22.2h6.491v5.1h-6.491V44.152h7.352v5.57h-8.9Z" transform="translate(-45.202 -0.661)" fill="#2e2e2e"/>
      <path id="패스_979" data-name="패스 979" d="M168.767,1.736h8.695v5.3h-7.145V22.2h6.49v5.1h-6.49V44.152h7.351v5.57h-8.9Z" transform="translate(-64.316 -0.661)" fill="#2e2e2e"/>
      <g id="그룹_132" data-name="그룹 132">
        <g id="그룹_131" data-name="그룹 131" clip-path="url(#clip-path)">
          <path id="패스_980" data-name="패스 980" d="M0,25.034C0,10.939,2.17,0,5.837,0c2.875,0,4.614,6.443,4.941,15.3H9.264C8.97,9.329,7.749,5.234,5.8,5.234c-2.7,0-4.218,8.525-4.218,19.8C1.584,36.779,3.254,44.7,5.82,44.7c2.323,0,3.426-6.175,3.58-13.222h1.532a60.65,60.65,0,0,1-1.481,13.49C8.592,48.255,7.335,50,5.768,50,2.273,50,0,39.6,0,25.034" transform="translate(0 0)" fill="#2e2e2e"/>
          <path id="패스_981" data-name="패스 981" d="M19.158,25.034C19.158,10.939,21.327,0,24.995,0c2.875,0,4.614,6.443,4.941,15.3H28.42C28.128,9.329,26.9,5.234,24.959,5.234c-2.7,0-4.217,8.525-4.217,19.8,0,11.745,1.67,19.664,4.235,19.664,2.325,0,3.427-6.175,3.582-13.222H30.09a60.69,60.69,0,0,1-1.48,13.49C27.748,48.255,26.492,50,24.926,50c-3.5,0-5.768-10.4-5.768-24.965" transform="translate(-7.301 0)" fill="#2e2e2e"/>
          <path id="패스_982" data-name="패스 982" d="M41.679,32.9h1.515c.205,8.122,1.481,12.35,3.8,12.35,1.7,0,2.927-3.021,2.927-8.994,0-6.577-1.48-8.121-3.684-10-2.17-1.88-4.029-4.3-4.029-13.356C42.212,4.983,43.9.218,46.4.218c3.082,0,4.356,6.107,4.665,14.966H49.6c-.224-6.846-1.36-10.269-3.169-10.269-1.669,0-2.771,2.752-2.771,7.718,0,5.436,1.378,7.047,3.22,8.456,2.393,1.879,4.579,4.161,4.579,14.967,0,8.993-1.877,14.026-4.527,14.026-3.46,0-5.115-7.517-5.251-17.181" transform="translate(-15.884 -0.083)" fill="#2e2e2e"/>
          <path id="패스_983" data-name="패스 983" d="M133.817,32.9h1.516c.206,8.122,1.48,12.35,3.805,12.35,1.7,0,2.926-3.021,2.926-8.994,0-6.577-1.481-8.121-3.684-10-2.169-1.88-4.028-4.3-4.028-13.356,0-7.919,1.687-12.684,4.183-12.684,3.083,0,4.356,6.107,4.667,14.966h-1.464c-.223-6.846-1.36-10.269-3.167-10.269-1.67,0-2.772,2.752-2.772,7.718,0,5.436,1.376,7.047,3.219,8.456,2.393,1.879,4.58,4.161,4.58,14.967,0,8.993-1.876,14.026-4.529,14.026-3.461,0-5.113-7.517-5.251-17.181" transform="translate(-50.997 -0.083)" fill="#2e2e2e"/>
          <path id="패스_984" data-name="패스 984" d="M150.665,32.9h1.516c.207,8.122,1.48,12.35,3.805,12.35,1.7,0,2.926-3.021,2.926-8.994,0-6.577-1.481-8.121-3.684-10-2.168-1.88-4.028-4.3-4.028-13.356,0-7.919,1.688-12.684,4.183-12.684,3.083,0,4.356,6.107,4.667,14.966h-1.464c-.223-6.846-1.36-10.269-3.167-10.269-1.67,0-2.772,2.752-2.772,7.718,0,5.436,1.377,7.047,3.219,8.456,2.394,1.879,4.581,4.161,4.581,14.967,0,8.993-1.877,14.026-4.529,14.026-3.46,0-5.113-7.517-5.251-17.181" transform="translate(-57.418 -0.083)" fill="#2e2e2e"/>
          <path id="패스_985" data-name="패스 985" d="M185.5,1.736h1.636l5.613,33.355c.413,2.483.9,6.175.9,6.175h.033V1.736h1.446V49.722h-1.583L187.9,16.3c-.4-2.348-.912-5.972-.912-5.972h-.035v39.4H185.5Z" transform="translate(-70.695 -0.661)" fill="#2e2e2e"/>
          <path id="패스_986" data-name="패스 986" d="M203.466,25.034C203.466,10.939,205.634,0,209.3,0c2.875,0,4.615,6.443,4.941,15.3h-1.514c-.292-5.974-1.515-10.068-3.461-10.068-2.7,0-4.218,8.525-4.218,19.8,0,11.745,1.67,19.664,4.236,19.664,2.324,0,3.426-6.175,3.581-13.222H214.4a60.657,60.657,0,0,1-1.48,13.49C212.056,48.255,210.8,50,209.234,50c-3.5,0-5.768-10.4-5.768-24.965" transform="translate(-77.54 0)" fill="#2e2e2e"/>
          <path id="패스_987" data-name="패스 987" d="M223.372,1.736h8.695v5.3h-7.145V22.2h6.49v5.1h-6.49V44.152h7.352v5.57h-8.9Z" transform="translate(-85.127 -0.661)" fill="#2e2e2e"/>
        </g>
      </g>
    </g>
    <g id="그룹_137" data-name="그룹 137" transform="translate(24 4011)">
      <g id="그룹_136" data-name="그룹 136" clip-path="url(#clip-path-2)">
        <path id="패스_1001" data-name="패스 1001" d="M0,25.1C0,10.565,8.277,0,21.87,0,32.032,0,38.762,5.652,40.377,14.6H35.935C34.657,8.345,29.676,3.9,21.8,3.9,10.5,3.9,4.71,13.256,4.71,25.1c0,12.046,5.99,20.928,17.026,20.928,9.287,0,14.334-6.46,15.074-14.4h4.374A20.83,20.83,0,0,1,36.2,44.212C32.84,47.981,27.792,50,21.668,50,8.277,50,0,39.838,0,25.1" fill="#2e2e2e"/>
        <path id="패스_1002" data-name="패스 1002" d="M30.3,23.428H22.688V20.586c4.263-.1,7.915-1.674,8.576-6.8h3.3V48.749H30.3Z" transform="translate(-10.268 -6.24)" fill="#2e2e2e"/>
      </g>
    </g>
  </g>
</svg>
