<svg xmlns="http://www.w3.org/2000/svg" xmlns:xlink="http://www.w3.org/1999/xlink" width="111.371" height="16" viewBox="0 0 111.371 16">
  <defs>
    <clipPath id="clip-path">
      <rect id="사각형_5" data-name="사각형 5" width="111.371" height="16" transform="translate(0 0)" fill="#adb4b7"/>
    </clipPath>
  </defs>
  <g id="그룹_3" data-name="그룹 3" clip-path="url(#clip-path)">
    <path id="패스_2" data-name="패스 2" d="M.676,13.409a4.323,4.323,0,0,0,3.563,1.744,2.833,2.833,0,0,0,3.077-2.685c0-1.62-1.129-2.629-3.394-4.576-.177-.15-.365-.3-.539-.446C2.027,6.266.53,5,.53,2.98A2.707,2.707,0,0,1,1.693.857,4.479,4.479,0,0,1,4.36,0,4.983,4.983,0,0,1,8.274,2L7.6,2.387A4.33,4.33,0,0,0,4.529.773,2.3,2.3,0,0,0,2.057,2.8c0,1.263,1.022,2.134,2.382,3.232.273.221.556.449.853.7,2.671,2.25,3.66,3.6,3.66,5.455C8.952,14.7,6.763,16,4.293,16A5.474,5.474,0,0,1,0,13.794Z" transform="translate(0 -0.001)" fill="#adb4b7"/>
    <path id="패스_3" data-name="패스 3" d="M83.885,1.159v8.978H76.173V1.159h-1.78V16.722h1.78V10.849h7.712v5.873h1.78V1.159Z" transform="translate(-62.672 -0.976)" fill="#adb4b7"/>
    <path id="패스_4" data-name="패스 4" d="M267.18,1.159V15.167l-8.673-14-.009-.012h-1.945l.336.7v14.86h1.068V3.286l8.186,13.5h2.106V1.159Z" transform="translate(-216.13 -0.976)" fill="#adb4b7"/>
    <path id="패스_5" data-name="패스 5" d="M453.3,8.09c3.12,0,4.034-.885,4.034-.885a3.352,3.352,0,0,0,1.324-2.644,2.753,2.753,0,0,0-1.429-2.6,6.784,6.784,0,0,0-3.795-.8h-2.893V16.722h1.78V1.978c1.754-.107,3.2-.059,3.9.6a2.344,2.344,0,0,1,.824,1.988,2.833,2.833,0,0,1-1.234,2.209,4.641,4.641,0,0,1-2.511.707Z" transform="translate(-379.55 -0.976)" fill="#adb4b7"/>
    <path id="패스_6" data-name="패스 6" d="M526.616,16.206v.622a3.526,3.526,0,0,1-.876.092,2.826,2.826,0,0,1-2.175-1,10.01,10.01,0,0,1-1.464-3.574c-.1-.341-.182-.629-.261-.93C521.2,8.98,520.4,8.354,518.526,8.2V7.587c2.135,0,3.754-1.287,3.754-2.982,0-1.013-.468-2.518-2.816-2.518h-1.916V16.83h-1.781V1.287h3.7c2.5,0,4.427,1.342,4.427,3.339a3.311,3.311,0,0,1-2.963,3.3c1.769.686,2.318,2.279,2.761,4.135.081.346.152.671.221.985.311,1.422.535,2.506,1.177,2.916,0,0,.293.245,1.527.245" transform="translate(-434.502 -1.084)" fill="#adb4b7"/>
    <path id="패스_7" data-name="패스 7" d="M358.456,9.656v6.653h-1.8V15.241a7.438,7.438,0,0,1-4.355,1.185,6.711,6.711,0,0,1-5.1-2.223,8.629,8.629,0,0,1-1.949-5.728,8.521,8.521,0,0,1,2-5.674A6.581,6.581,0,0,1,352.3.594a10.794,10.794,0,0,1,5.57,1.266L357.088,2.9a6.307,6.307,0,0,0-4.549-1.529,5.234,5.234,0,0,0-4.147,2.045,8.012,8.012,0,0,0-1.516,5.057,8.374,8.374,0,0,0,1.471,5.057,5.264,5.264,0,0,0,4.191,2.148,6.523,6.523,0,0,0,4.12-1.165V10.4h-2.771V9.656Z" transform="translate(-290.854 -0.5)" fill="#adb4b7"/>
    <path id="패스_8" data-name="패스 8" d="M169.284,16.722h1.844L164.565,1.159h-1.932l.356.8-6.227,14.719-.017.041h.94l.089-.211,2.386-5.662h6.594Zm-8.823-6.585,2.962-7.027,3.026,7.027Z" transform="translate(-132.048 -0.976)" fill="#adb4b7"/>
    <path id="패스_9" data-name="패스 9" d="M601.943,16.721l-.139-.712h-5.631V8.118h4.449V7.407h-4.449V1.871H601.8l.139-.712h-7.55V16.721Z" transform="translate(-500.738 -0.976)" fill="#adb4b7"/>
    <path id="패스_10" data-name="패스 10" d="M666.465,16.721l-.139-.712H660.7V8.118h4.449V7.407H660.7V1.871h5.631l.139-.712h-7.55V16.721Z" transform="translate(-555.094 -0.976)" fill="#adb4b7"/>
  </g>
</svg>
