<svg id="그룹_4" data-name="그룹 4" xmlns="http://www.w3.org/2000/svg" xmlns:xlink="http://www.w3.org/1999/xlink" width="250" height="35.916" viewBox="0 0 250 35.916">
  <defs>
    <clipPath id="clip-path">
      <rect id="사각형_5" data-name="사각형 5" width="250" height="35.916" transform="translate(0 0)" fill="#fff"/>
    </clipPath>
  </defs>
  <g id="그룹_3" data-name="그룹 3" transform="translate(0 0)" clip-path="url(#clip-path)">
    <path id="패스_2" data-name="패스 2" d="M1.518,30.1c2.705,2.908,4.8,3.959,8,3.914,4.128-.044,6.908-2.715,6.908-6.026,0-3.636-2.534-5.9-7.619-10.272-.4-.336-.82-.663-1.21-1-3.045-2.648-6.4-5.487-6.4-10.023A6.077,6.077,0,0,1,3.8,1.922,10.053,10.053,0,0,1,9.787,0a11.185,11.185,0,0,1,8.785,4.5l-1.5.859C14.416,2.767,12.615,1.8,10.165,1.734c-3.007-.079-5.549,2.111-5.549,4.55,0,2.834,2.294,4.79,5.348,7.256.614.5,1.248,1.008,1.915,1.57,6,5.05,8.215,8.078,8.215,12.245,0,5.65-4.912,8.561-10.456,8.561A12.288,12.288,0,0,1,0,30.963Z" transform="translate(0 -0.001)" fill="#fff"/>
    <path id="패스_3" data-name="패스 3" d="M95.7,1.159V21.311H78.388V1.159H74.393V36.093h3.995V22.91H95.7V36.093h3.995V1.159Z" transform="translate(-48.081 -0.749)" fill="#fff"/>
    <path id="패스_4" data-name="패스 4" d="M280.408,1.159V32.6L260.94,1.187l-.019-.028h-4.367l.753,1.577V36.093h2.4V5.934l18.375,30.3,4.727,0V1.159Z" transform="translate(-165.812 -0.749)" fill="#fff"/>
    <path id="패스_5" data-name="패스 5" d="M456.731,16.718c7,0,9.055-1.986,9.055-1.986A7.525,7.525,0,0,0,468.758,8.8c0-2.982-1.079-4.389-3.208-5.845-1.959-1.341-4.825-1.793-8.518-1.793h-6.493V36.093h3.995V3c3.937-.239,7.19-.132,8.754,1.337A5.261,5.261,0,0,1,465.137,8.8a6.359,6.359,0,0,1-2.77,4.958,10.42,10.42,0,0,1-5.636,1.586Z" transform="translate(-291.187 -0.749)" fill="#fff"/>
    <path id="패스_6" data-name="패스 6" d="M540.119,34.777v1.4a7.916,7.916,0,0,1-1.966.207,6.343,6.343,0,0,1-4.882-2.252c-1.675-1.958-2.467-5.191-3.286-8.024-.221-.765-.408-1.411-.587-2.088-1.446-5.46-3.232-6.864-7.438-7.215V15.429c4.792,0,8.427-2.888,8.427-6.693,0-2.274-1.052-5.652-6.32-5.652h-4.3V36.176h-4V1.287h8.3c5.614,0,9.938,3.012,9.938,7.494,0,3.926-2.623,6.621-6.652,7.405,3.971,1.539,5.2,5.117,6.2,9.283.183.776.342,1.506.5,2.212.7,3.193,1.2,5.625,2.642,6.546,0,0,.658.55,3.429.55" transform="translate(-333.345 -0.832)" fill="#fff"/>
    <path id="패스_7" data-name="패스 7" d="M374.889,20.936V35.869h-4.033v-2.4a16.7,16.7,0,0,1-9.775,2.66,15.065,15.065,0,0,1-11.453-4.991,19.371,19.371,0,0,1-4.375-12.858,19.128,19.128,0,0,1,4.5-12.737A14.773,14.773,0,0,1,361.082.594a24.229,24.229,0,0,1,12.5,2.842l-1.765,2.337C369,3.726,367.1,2.341,361.609,2.341a11.749,11.749,0,0,0-9.309,4.59c-2.375,2.967-3.4,7-3.4,11.353a18.8,18.8,0,0,0,3.3,11.352,11.815,11.815,0,0,0,9.409,4.821c4.407,0,7.094-1.044,9.248-2.614V22.6h-6.22V20.936Z" transform="translate(-223.14 -0.384)" fill="#fff"/>
    <path id="패스_8" data-name="패스 8" d="M184.892,36.093h4.14L174.3,1.159h-4.336l.8,1.8L156.784,36l-.039.092h2.111l.2-.473,5.357-12.71h14.8ZM165.086,21.312l6.648-15.775,6.793,15.775Z" transform="translate(-101.306 -0.749)" fill="#fff"/>
    <path id="패스_9" data-name="패스 9" d="M611.34,36.093l-.313-1.6h-12.64V16.782h9.987v-1.6h-9.987V2.757h12.64l.313-1.6H594.393V36.093Z" transform="translate(-384.161 -0.749)" fill="#fff"/>
    <path id="패스_10" data-name="패스 10" d="M675.862,36.093l-.313-1.6H662.91V16.782H672.9v-1.6H662.91V2.757h12.64l.313-1.6H658.916V36.093Z" transform="translate(-425.863 -0.749)" fill="#fff"/>
  </g>
</svg>
